<?xml version="1.0" encoding="UTF-8"?>
<svg xmlns="http://www.w3.org/2000/svg" width="373.440625" height="958">
   <defs>
      <style type="text/css">
                        text {
                            font-family: 'Arial';
                            fill: black;
                        }
                        text.at {
                            font-family: 'Arial';
                            fill: rgb(242, 152, 0);
                        }
                        line {
                            stroke: black;
                        }
                        line.type-structure {
                            stroke: black;
                        }
                        line.type-structure-optional {
                            stroke: black;
                            stroke-dasharray: 4, 4;
                        }
                        rect.attribute-upper {
                            stroke: black;
                            fill: rgb(255, 239, 211);
                        }
                        rect.element-upper {
                            stroke: black;
                            fill: rgb(215, 227, 249);
                        }
                        rect.element-lower {
                            stroke: black;
                            fill: rgb(236, 242, 252);
                        }
                        a text {
                            fill: black;
                        } 
                    </style>
   </defs>
   <rect width="363.440625"
         height="948"
         stroke-dasharray="3,3"
         rx="1"
         ry="1"
         style="stroke: grey;fill: white;"/>
   <text font-size="14" x="3.6" y="18" font-weight="bold">complexType SchuelerWechselnd</text>
   <g transform="translate(10,34)">
      <g transform="translate(55,0)">
         <rect width="195.703125" height="18" class="element-upper"/>
         <rect width="195.703125" height="18" y="18" class="element-lower"/>
         <text font-size="12" x="3.6" y="12" font-weight="bold">nameNatuerlichePerson</text>
         <line x1="0" y1="18" x2="195.703125" y2="18"/>
         <text font-size="12" fill="grey" x="3.6" y="30">type</text>
         <line x1="31.753125" y1="18" x2="31.753125" y2="36"/>
         <text font-size="12" x="35.353125" y="30">xsc:NameNatuerlichePerson</text>
         <g transform="translate(195.703125,0)"/>
      </g>
      <line x1="33"
            y1="18"
            x2="55"
            y2="18"
            class="type-structure-required"/>
      <text font-size="11" fill="black" x="53" y="16" text-anchor="end"/>
      <line x1="33"
            y1="18"
            x2="33"
            y2="18"
            class="type-structure-required"/>
      <g transform="translate(55,48)">
         <rect width="97.109375" height="18" class="element-upper"/>
         <rect width="97.109375" height="18" y="18" class="element-lower"/>
         <text font-size="12" x="3.6" y="12" font-weight="bold">geburt</text>
         <line x1="0" y1="18" x2="97.109375" y2="18"/>
         <text font-size="12" fill="grey" x="3.6" y="30">type</text>
         <line x1="31.753125" y1="18" x2="31.753125" y2="36"/>
         <text font-size="12" x="35.353125" y="30">xsc:Geburt</text>
         <g transform="translate(97.109375,0)"/>
      </g>
      <line x1="33"
            y1="66"
            x2="55"
            y2="66"
            class="type-structure-required"/>
      <text font-size="11" fill="black" x="53" y="64" text-anchor="end"/>
      <line x1="33"
            y1="18"
            x2="33"
            y2="66"
            class="type-structure-required"/>
      <g transform="translate(55,96)">
         <rect width="211.109375" height="18" class="element-upper"/>
         <rect width="211.109375" height="18" y="18" class="element-lower"/>
         <text font-size="12" x="3.6" y="12" font-weight="bold">staatsangehoerigkeit</text>
         <line x1="0" y1="18" x2="211.109375" y2="18"/>
         <text font-size="12" fill="grey" x="3.6" y="30">type</text>
         <line x1="31.753125" y1="18" x2="31.753125" y2="36"/>
         <text font-size="12" x="35.353125" y="30">xbd:Code.Staatsangehoerigkeit</text>
         <g transform="translate(211.109375,0)"/>
      </g>
      <line x1="33"
            y1="114"
            x2="55"
            y2="114"
            class="type-structure-optional"/>
      <text font-size="11"
            fill="black"
            x="53"
            y="112"
            text-anchor="end">0..*</text>
      <line x1="33"
            y1="66"
            x2="33"
            y2="114"
            class="type-structure-optional"/>
      <g transform="translate(55,144)">
         <rect width="107.109375" height="18" class="element-upper"/>
         <rect width="107.109375" height="18" y="18" class="element-lower"/>
         <text font-size="12" x="3.6" y="12" font-weight="bold">anschrift</text>
         <line x1="0" y1="18" x2="107.109375" y2="18"/>
         <text font-size="12" fill="grey" x="3.6" y="30">type</text>
         <line x1="31.753125" y1="18" x2="31.753125" y2="36"/>
         <text font-size="12" x="35.353125" y="30">xsc:Anschrift</text>
         <g transform="translate(107.109375,0)"/>
      </g>
      <line x1="33"
            y1="162"
            x2="55"
            y2="162"
            class="type-structure-optional"/>
      <text font-size="11"
            fill="black"
            x="53"
            y="160"
            text-anchor="end">0..*</text>
      <line x1="33"
            y1="114"
            x2="33"
            y2="162"
            class="type-structure-optional"/>
      <g transform="translate(55,192)">
         <rect width="156.109375" height="18" class="element-upper"/>
         <rect width="156.109375" height="18" y="18" class="element-lower"/>
         <text font-size="12" x="3.6" y="12" font-weight="bold">geschlecht</text>
         <line x1="0" y1="18" x2="156.109375" y2="18"/>
         <text font-size="12" fill="grey" x="3.6" y="30">type</text>
         <line x1="31.753125" y1="18" x2="31.753125" y2="36"/>
         <text font-size="12" x="35.353125" y="30">xbd:Code.Geschlecht</text>
         <g transform="translate(156.109375,0)"/>
      </g>
      <line x1="33"
            y1="210"
            x2="55"
            y2="210"
            class="type-structure-optional"/>
      <text font-size="11"
            fill="black"
            x="53"
            y="208"
            text-anchor="end">0..1</text>
      <line x1="33"
            y1="162"
            x2="33"
            y2="210"
            class="type-structure-optional"/>
      <g transform="translate(55,240)">
         <rect width="137.76874999999998" height="18" class="element-upper"/>
         <rect width="137.76874999999998"
               height="18"
               y="18"
               class="element-lower"/>
         <text font-size="12" x="3.6" y="12" font-weight="bold">identifikationsnummer</text>
         <line x1="0" y1="18" x2="137.76874999999998" y2="18"/>
         <text font-size="12" fill="grey" x="3.6" y="30">type</text>
         <line x1="31.753125" y1="18" x2="31.753125" y2="36"/>
         <text font-size="12" x="35.353125" y="30">xsc:Identifikation</text>
         <g transform="translate(137.76874999999998,0)"/>
      </g>
      <line x1="33"
            y1="258"
            x2="55"
            y2="258"
            class="type-structure-optional"/>
      <text font-size="11"
            fill="black"
            x="53"
            y="256"
            text-anchor="end">0..*</text>
      <line x1="33"
            y1="210"
            x2="33"
            y2="258"
            class="type-structure-optional"/>
      <g transform="translate(55,288)">
         <rect width="145.703125" height="18" class="element-upper"/>
         <rect width="145.703125" height="18" y="18" class="element-lower"/>
         <text font-size="12" x="3.6" y="12" font-weight="bold">kommunikation</text>
         <line x1="0" y1="18" x2="145.703125" y2="18"/>
         <text font-size="12" fill="grey" x="3.6" y="30">type</text>
         <line x1="31.753125" y1="18" x2="31.753125" y2="36"/>
         <text font-size="12" x="35.353125" y="30">xsc:Kommunikation</text>
         <g transform="translate(145.703125,0)"/>
      </g>
      <line x1="33"
            y1="306"
            x2="55"
            y2="306"
            class="type-structure-optional"/>
      <text font-size="11"
            fill="black"
            x="53"
            y="304"
            text-anchor="end">0..*</text>
      <line x1="33"
            y1="258"
            x2="33"
            y2="306"
            class="type-structure-optional"/>
      <g transform="translate(55,336)">
         <rect width="268.609375" height="18" class="element-upper"/>
         <rect width="268.609375" height="18" y="18" class="element-lower"/>
         <text font-size="12" x="3.6" y="12" font-weight="bold">sonderpaedagogischerFoerderbedarf</text>
         <line x1="0" y1="18" x2="268.609375" y2="18"/>
         <text font-size="12" fill="grey" x="3.6" y="30">type</text>
         <line x1="31.753125" y1="18" x2="31.753125" y2="36"/>
         <text font-size="12" x="35.353125" y="30">xsc:SonderpaedagogischerFoerderbedarf</text>
         <g transform="translate(268.609375,0)"/>
      </g>
      <line x1="33"
            y1="354"
            x2="55"
            y2="354"
            class="type-structure-optional"/>
      <text font-size="11"
            fill="black"
            x="53"
            y="352"
            text-anchor="end">0..*</text>
      <line x1="33"
            y1="306"
            x2="33"
            y2="354"
            class="type-structure-optional"/>
      <g transform="translate(55,384)">
         <rect width="195.703125" height="18" class="element-upper"/>
         <rect width="195.703125" height="18" y="18" class="element-lower"/>
         <text font-size="12" x="3.6" y="12" font-weight="bold">impfung</text>
         <line x1="0" y1="18" x2="195.703125" y2="18"/>
         <text font-size="12" fill="grey" x="3.6" y="30">type</text>
         <line x1="31.753125" y1="18" x2="31.753125" y2="36"/>
         <text font-size="12" x="35.353125" y="30">xsc:ImpfnachweisVorhanden</text>
         <g transform="translate(195.703125,0)"/>
      </g>
      <line x1="33"
            y1="402"
            x2="55"
            y2="402"
            class="type-structure-optional"/>
      <text font-size="11"
            fill="black"
            x="53"
            y="400"
            text-anchor="end">0..*</text>
      <line x1="33"
            y1="354"
            x2="33"
            y2="402"
            class="type-structure-optional"/>
      <g transform="translate(55,432)">
         <rect width="149.03125" height="18" class="element-upper"/>
         <rect width="149.03125" height="18" y="18" class="element-lower"/>
         <text font-size="12" x="3.6" y="12" font-weight="bold">herkunftssprache</text>
         <line x1="0" y1="18" x2="149.03125" y2="18"/>
         <text font-size="12" fill="grey" x="3.6" y="30">type</text>
         <line x1="31.753125" y1="18" x2="31.753125" y2="36"/>
         <text font-size="12" x="35.353125" y="30">xbd:Code.Language</text>
         <g transform="translate(149.03125,0)"/>
      </g>
      <line x1="33"
            y1="450"
            x2="55"
            y2="450"
            class="type-structure-optional"/>
      <text font-size="11"
            fill="black"
            x="53"
            y="448"
            text-anchor="end">0..*</text>
      <line x1="33"
            y1="402"
            x2="33"
            y2="450"
            class="type-structure-optional"/>
      <g transform="translate(55,480)">
         <rect width="149.03125" height="18" class="element-upper"/>
         <rect width="149.03125" height="18" y="18" class="element-lower"/>
         <text font-size="12" x="3.6" y="12" font-weight="bold">verkehrssprache</text>
         <line x1="0" y1="18" x2="149.03125" y2="18"/>
         <text font-size="12" fill="grey" x="3.6" y="30">type</text>
         <line x1="31.753125" y1="18" x2="31.753125" y2="36"/>
         <text font-size="12" x="35.353125" y="30">xbd:Code.Language</text>
         <g transform="translate(149.03125,0)"/>
      </g>
      <line x1="33"
            y1="498"
            x2="55"
            y2="498"
            class="type-structure-optional"/>
      <text font-size="11"
            fill="black"
            x="53"
            y="496"
            text-anchor="end">0..*</text>
      <line x1="33"
            y1="450"
            x2="33"
            y2="498"
            class="type-structure-optional"/>
      <g transform="translate(55,528)">
         <rect width="178.671875" height="18" class="element-upper"/>
         <rect width="178.671875" height="18" y="18" class="element-lower"/>
         <text font-size="12" x="3.6" y="12" font-weight="bold">migrationshintergrund</text>
         <line x1="0" y1="18" x2="178.671875" y2="18"/>
         <text font-size="12" fill="grey" x="3.6" y="30">type</text>
         <line x1="31.753125" y1="18" x2="31.753125" y2="36"/>
         <text font-size="12" x="35.353125" y="30">xsc:Migrationshintergrund</text>
         <g transform="translate(178.671875,0)"/>
      </g>
      <line x1="33"
            y1="546"
            x2="55"
            y2="546"
            class="type-structure-optional"/>
      <text font-size="11"
            fill="black"
            x="53"
            y="544"
            text-anchor="end">0..1</text>
      <line x1="33"
            y1="498"
            x2="33"
            y2="546"
            class="type-structure-optional"/>
      <g transform="translate(55,576)">
         <rect width="154.703125" height="18" class="element-upper"/>
         <rect width="154.703125" height="18" y="18" class="element-lower"/>
         <text font-size="12" x="3.6" y="12" font-weight="bold">konfession</text>
         <line x1="0" y1="18" x2="154.703125" y2="18"/>
         <text font-size="12" fill="grey" x="3.6" y="30">type</text>
         <line x1="31.753125" y1="18" x2="31.753125" y2="36"/>
         <text font-size="12" x="35.353125" y="30">xsc:Code.Konfession</text>
         <g transform="translate(154.703125,0)"/>
      </g>
      <line x1="33"
            y1="594"
            x2="55"
            y2="594"
            class="type-structure-optional"/>
      <text font-size="11"
            fill="black"
            x="53"
            y="592"
            text-anchor="end">0..1</text>
      <line x1="33"
            y1="546"
            x2="33"
            y2="594"
            class="type-structure-optional"/>
      <g transform="translate(55,624)">
         <rect width="154.671875" height="18" class="element-upper"/>
         <rect width="154.671875" height="18" y="18" class="element-lower"/>
         <text font-size="12" x="3.6" y="12" font-weight="bold">schuelerReisender</text>
         <line x1="0" y1="18" x2="154.671875" y2="18"/>
         <text font-size="12" fill="grey" x="3.6" y="30">type</text>
         <line x1="31.753125" y1="18" x2="31.753125" y2="36"/>
         <text font-size="12" x="35.353125" y="30">xsc:SchuelerReisend</text>
         <g transform="translate(154.671875,0)"/>
      </g>
      <line x1="33"
            y1="642"
            x2="55"
            y2="642"
            class="type-structure-optional"/>
      <text font-size="11"
            fill="black"
            x="53"
            y="640"
            text-anchor="end">0..1</text>
      <line x1="33"
            y1="594"
            x2="33"
            y2="642"
            class="type-structure-optional"/>
      <g transform="translate(55,672)">
         <rect width="67.409375" height="18" class="element-upper"/>
         <rect width="67.409375" height="18" y="18" class="element-lower"/>
         <text font-size="12" x="3.6" y="12" font-weight="bold">schulform</text>
         <line x1="0" y1="18" x2="67.409375" y2="18"/>
         <text font-size="12" fill="grey" x="3.6" y="30">type</text>
         <line x1="31.753125" y1="18" x2="31.753125" y2="36"/>
         <g transform="translate(67.409375,0)">
            <g transform="translate(55,0)">
               <rect width="165.03125" height="18" class="element-upper"/>
               <rect width="165.03125" height="18" y="18" class="element-lower"/>
               <text font-size="12" x="3.6" y="12" font-weight="bold">code</text>
               <line x1="0" y1="18" x2="165.03125" y2="18"/>
               <text font-size="12" fill="grey" x="3.6" y="30">type</text>
               <line x1="31.753125" y1="18" x2="31.753125" y2="36"/>
               <text font-size="12" x="35.353125" y="30">xbd:Code.ArtDerSchule</text>
               <g transform="translate(165.03125,0)"/>
            </g>
            <line x1="33"
                  y1="18"
                  x2="55"
                  y2="18"
                  class="type-structure-required"/>
            <text font-size="11" fill="black" x="53" y="16" text-anchor="end"/>
            <line x1="33"
                  y1="18"
                  x2="33"
                  y2="18"
                  class="type-structure-required"/>
            <g transform="translate(55,48)">
               <rect width="120.8" height="18" class="element-upper"/>
               <rect width="120.8" height="18" y="18" class="element-lower"/>
               <text font-size="12" x="3.6" y="12" font-weight="bold">nichtGelisteterWert</text>
               <line x1="0" y1="18" x2="120.8" y2="18"/>
               <text font-size="12" fill="grey" x="3.6" y="30">type</text>
               <line x1="31.753125" y1="18" x2="31.753125" y2="36"/>
               <text font-size="12" x="35.353125" y="30">xs:string</text>
               <g transform="translate(120.8,0)"/>
            </g>
            <line x1="33"
                  y1="66"
                  x2="55"
                  y2="66"
                  class="type-structure-optional"/>
            <text font-size="11" fill="black" x="53" y="64" text-anchor="end">0..1</text>
            <line x1="33"
                  y1="18"
                  x2="33"
                  y2="66"
                  class="type-structure-optional"/>
            <circle cx="15"
                    cy="18"
                    r="10"
                    stroke="black"
                    fill="rgb(251, 251, 251)"/>
            <line x1="0"
                  y1="18"
                  x2="5"
                  y2="18"
                  class="type-structure-required"/>
            <line x1="25"
                  y1="18"
                  x2="33"
                  y2="18"
                  class="type-structure-required"/>
            <circle cx="10" cy="18" r="1.2" stroke="black" fill="black"/>
            <circle cx="15" cy="18" r="1.2" stroke="black" fill="black"/>
            <circle cx="20" cy="18" r="1.2" stroke="black" fill="black"/>
            <line x1="7" y1="18" x2="23" y2="18"/>
         </g>
      </g>
      <line x1="33"
            y1="690"
            x2="55"
            y2="690"
            class="type-structure-optional"/>
      <text font-size="11"
            fill="black"
            x="53"
            y="688"
            text-anchor="end">0..1</text>
      <line x1="33"
            y1="642"
            x2="33"
            y2="690"
            class="type-structure-optional"/>
      <g transform="translate(55,768)">
         <rect width="146.671875" height="18" class="element-upper"/>
         <rect width="146.671875" height="18" y="18" class="element-lower"/>
         <text font-size="12" x="3.6" y="12" font-weight="bold">schulprofil</text>
         <line x1="0" y1="18" x2="146.671875" y2="18"/>
         <text font-size="12" fill="grey" x="3.6" y="30">type</text>
         <line x1="31.753125" y1="18" x2="31.753125" y2="36"/>
         <text font-size="12" x="35.353125" y="30">xbd:String.Localized</text>
         <g transform="translate(146.671875,0)"/>
      </g>
      <line x1="33"
            y1="786"
            x2="55"
            y2="786"
            class="type-structure-optional"/>
      <text font-size="11"
            fill="black"
            x="53"
            y="784"
            text-anchor="end">0..1</text>
      <line x1="33"
            y1="690"
            x2="33"
            y2="786"
            class="type-structure-optional"/>
      <g transform="translate(55,816)">
         <rect width="146.671875" height="18" class="element-upper"/>
         <rect width="146.671875" height="18" y="18" class="element-lower"/>
         <text font-size="12" x="3.6" y="12" font-weight="bold">bildungsgang</text>
         <line x1="0" y1="18" x2="146.671875" y2="18"/>
         <text font-size="12" fill="grey" x="3.6" y="30">type</text>
         <line x1="31.753125" y1="18" x2="31.753125" y2="36"/>
         <text font-size="12" x="35.353125" y="30">xbd:String.Localized</text>
         <g transform="translate(146.671875,0)"/>
      </g>
      <line x1="33"
            y1="834"
            x2="55"
            y2="834"
            class="type-structure-optional"/>
      <text font-size="11"
            fill="black"
            x="53"
            y="832"
            text-anchor="end">0..1</text>
      <line x1="33"
            y1="786"
            x2="33"
            y2="834"
            class="type-structure-optional"/>
      <g transform="translate(55,864)">
         <rect width="165.22187499999998" height="18" class="element-upper"/>
         <rect width="165.22187499999998"
               height="18"
               y="18"
               class="element-lower"/>
         <text font-size="12" x="3.6" y="12" font-weight="bold">auskunftssperreGueltigkeit</text>
         <line x1="0" y1="18" x2="165.22187499999998" y2="18"/>
         <text font-size="12" fill="grey" x="3.6" y="30">type</text>
         <line x1="31.753125" y1="18" x2="31.753125" y2="36"/>
         <text font-size="12" x="35.353125" y="30">xsc:Zeitraum</text>
         <g transform="translate(165.22187499999998,0)"/>
      </g>
      <line x1="33"
            y1="882"
            x2="55"
            y2="882"
            class="type-structure-optional"/>
      <text font-size="11"
            fill="black"
            x="53"
            y="880"
            text-anchor="end">0..*</text>
      <line x1="33"
            y1="834"
            x2="33"
            y2="882"
            class="type-structure-optional"/>
      <circle cx="15"
              cy="18"
              r="10"
              stroke="black"
              fill="rgb(251, 251, 251)"/>
      <line x1="0"
            y1="18"
            x2="5"
            y2="18"
            class="type-structure-required"/>
      <line x1="25"
            y1="18"
            x2="33"
            y2="18"
            class="type-structure-required"/>
      <circle cx="10" cy="18" r="1.2" stroke="black" fill="black"/>
      <circle cx="15" cy="18" r="1.2" stroke="black" fill="black"/>
      <circle cx="20" cy="18" r="1.2" stroke="black" fill="black"/>
      <line x1="7" y1="18" x2="23" y2="18"/>
   </g>
</svg>
