<?xml version="1.0" encoding="UTF-8"?>
<svg xmlns="http://www.w3.org/2000/svg"
     width="697.2406249999999"
     height="1018">
   <defs>
      <style type="text/css">
                        text {
                            font-family: 'Arial';
                            fill: black;
                        }
                        text.at {
                            font-family: 'Arial';
                            fill: rgb(242, 152, 0);
                        }
                        line {
                            stroke: black;
                        }
                        line.type-structure {
                            stroke: black;
                        }
                        line.type-structure-optional {
                            stroke: black;
                            stroke-dasharray: 4, 4;
                        }
                        rect.attribute-upper {
                            stroke: black;
                            fill: rgb(255, 239, 211);
                        }
                        rect.element-upper {
                            stroke: black;
                            fill: rgb(215, 227, 249);
                        }
                        rect.element-lower {
                            stroke: black;
                            fill: rgb(236, 242, 252);
                        }
                        a text {
                            fill: black;
                        } 
                    </style>
   </defs>
   <rect width="687.2406249999999"
         height="1008"
         stroke-dasharray="3,3"
         rx="1"
         ry="1"
         style="stroke: grey;fill: white;"/>
   <text font-size="14" x="3.6" y="18" font-weight="bold">element schueler.wechsel.0001 (anonymous type)</text>
   <text font-size="12" x="3.6" y="34.8"> (extension of xbd:Dokument)</text>
   <g transform="translate(10,46)">
      <g transform="translate(55,0)">
         <rect width="182.015625" height="18" class="element-upper"/>
         <rect width="182.015625" height="18" y="18" class="element-lower"/>
         <text font-size="12" x="3.6" y="12" font-weight="bold">schueler</text>
         <line x1="0" y1="18" x2="182.015625" y2="18"/>
         <text font-size="12" fill="grey" x="3.6" y="30">type</text>
         <line x1="31.753125" y1="18" x2="31.753125" y2="36"/>
         <text font-size="12" x="35.353125" y="30">xsc:WechselnderSchueler</text>
         <g transform="translate(182.015625,0)"/>
      </g>
      <line x1="33"
            y1="18"
            x2="55"
            y2="18"
            class="type-structure-required"/>
      <text font-size="11" fill="black" x="53" y="16" text-anchor="end"/>
      <line x1="33"
            y1="18"
            x2="33"
            y2="18"
            class="type-structure-required"/>
      <g transform="translate(55,48)">
         <rect width="143.25312499999998" height="18" class="element-upper"/>
         <rect width="143.25312499999998"
               height="18"
               y="18"
               class="element-lower"/>
         <text font-size="12" x="3.6" y="12" font-weight="bold">erziehungsberechtigter</text>
         <line x1="0" y1="18" x2="143.25312499999998" y2="18"/>
         <text font-size="12" fill="grey" x="3.6" y="30">type</text>
         <line x1="31.753125" y1="18" x2="31.753125" y2="36"/>
         <g transform="translate(143.25312499999998,0)">
            <g transform="translate(55,0)">
               <rect width="128.44062499999998" height="18" class="element-upper"/>
               <rect width="128.44062499999998"
                     height="18"
                     y="18"
                     class="element-lower"/>
               <text font-size="12" x="3.6" y="12" font-weight="bold">zukuenftigeAnschrift</text>
               <line x1="0" y1="18" x2="128.44062499999998" y2="18"/>
               <text font-size="12" fill="grey" x="3.6" y="30">type</text>
               <line x1="31.753125" y1="18" x2="31.753125" y2="36"/>
               <g transform="translate(128.44062499999998,0)">
                  <g transform="translate(55,0)">
                     <rect width="108.109375" height="18" class="element-upper"/>
                     <rect width="108.109375" height="18" y="18" class="element-lower"/>
                     <text font-size="12" x="3.6" y="12" font-weight="bold">anschrift</text>
                     <line x1="0" y1="18" x2="108.109375" y2="18"/>
                     <text font-size="12" fill="grey" x="3.6" y="30">type</text>
                     <line x1="31.753125" y1="18" x2="31.753125" y2="36"/>
                     <text font-size="12" x="35.353125" y="30">xbd:Anschrift</text>
                     <g transform="translate(108.109375,0)"/>
                  </g>
                  <line x1="33"
                        y1="18"
                        x2="55"
                        y2="18"
                        class="type-structure-required"/>
                  <text font-size="11" fill="black" x="53" y="16" text-anchor="end"/>
                  <line x1="33"
                        y1="18"
                        x2="33"
                        y2="18"
                        class="type-structure-required"/>
                  <g transform="translate(55,48)">
                     <rect width="146.671875" height="18" class="element-upper"/>
                     <rect width="146.671875" height="18" y="18" class="element-lower"/>
                     <text font-size="12" x="3.6" y="12" font-weight="bold">beschreibung</text>
                     <line x1="0" y1="18" x2="146.671875" y2="18"/>
                     <text font-size="12" fill="grey" x="3.6" y="30">type</text>
                     <line x1="31.753125" y1="18" x2="31.753125" y2="36"/>
                     <text font-size="12" x="35.353125" y="30">xbd:String.Localized</text>
                     <g transform="translate(146.671875,0)"/>
                  </g>
                  <line x1="33"
                        y1="66"
                        x2="55"
                        y2="66"
                        class="type-structure-optional"/>
                  <text font-size="11" fill="black" x="53" y="64" text-anchor="end">0..1</text>
                  <line x1="33"
                        y1="18"
                        x2="33"
                        y2="66"
                        class="type-structure-optional"/>
                  <circle cx="15"
                          cy="18"
                          r="10"
                          stroke="black"
                          fill="rgb(251, 251, 251)"/>
                  <line x1="0"
                        y1="18"
                        x2="5"
                        y2="18"
                        class="type-structure-required"/>
                  <line x1="25"
                        y1="18"
                        x2="33"
                        y2="18"
                        class="type-structure-required"/>
                  <circle cx="10" cy="18" r="1.2" stroke="black" fill="black"/>
                  <circle cx="15" cy="18" r="1.2" stroke="black" fill="black"/>
                  <circle cx="20" cy="18" r="1.2" stroke="black" fill="black"/>
                  <line x1="7" y1="18" x2="23" y2="18"/>
               </g>
            </g>
            <line x1="33"
                  y1="18"
                  x2="55"
                  y2="18"
                  class="type-structure-optional"/>
            <text font-size="11" fill="black" x="53" y="16" text-anchor="end">0..1</text>
            <line x1="33"
                  y1="18"
                  x2="33"
                  y2="18"
                  class="type-structure-optional"/>
            <circle cx="15"
                    cy="18"
                    r="10"
                    stroke="black"
                    fill="rgb(251, 251, 251)"/>
            <line x1="0"
                  y1="18"
                  x2="5"
                  y2="18"
                  class="type-structure-optional"/>
            <line x1="25"
                  y1="18"
                  x2="33"
                  y2="18"
                  class="type-structure-optional"/>
            <circle cx="10" cy="18" r="1.2" stroke="black" fill="black"/>
            <circle cx="15" cy="18" r="1.2" stroke="black" fill="black"/>
            <circle cx="20" cy="18" r="1.2" stroke="black" fill="black"/>
            <line x1="7" y1="18" x2="23" y2="18"/>
         </g>
      </g>
      <line x1="33"
            y1="66"
            x2="55"
            y2="66"
            class="type-structure-optional"/>
      <text font-size="11" fill="black" x="53" y="64" text-anchor="end">0..*</text>
      <line x1="33"
            y1="18"
            x2="33"
            y2="66"
            class="type-structure-optional"/>
      <g transform="translate(55,144)">
         <rect width="66.565625" height="18" class="element-upper"/>
         <rect width="66.565625" height="18" y="18" class="element-lower"/>
         <text font-size="12" x="3.6" y="12" font-weight="bold">aufnahme</text>
         <line x1="0" y1="18" x2="66.565625" y2="18"/>
         <text font-size="12" fill="grey" x="3.6" y="30">type</text>
         <line x1="31.753125" y1="18" x2="31.753125" y2="36"/>
         <g transform="translate(66.565625,0)">
            <g transform="translate(55,0)">
               <rect width="174.078125" height="18" class="element-upper"/>
               <rect width="174.078125" height="18" y="18" class="element-lower"/>
               <text font-size="12" x="3.6" y="12" font-weight="bold">datum</text>
               <line x1="0" y1="18" x2="174.078125" y2="18"/>
               <text font-size="12" fill="grey" x="3.6" y="30">type</text>
               <line x1="31.753125" y1="18" x2="31.753125" y2="36"/>
               <text font-size="12" x="35.353125" y="30">xbd:TeilbekanntesDatum</text>
               <g transform="translate(174.078125,0)"/>
            </g>
            <line x1="33"
                  y1="18"
                  x2="55"
                  y2="18"
                  class="type-structure-optional"/>
            <text font-size="11" fill="black" x="53" y="16" text-anchor="end">0..1</text>
            <line x1="33"
                  y1="18"
                  x2="33"
                  y2="18"
                  class="type-structure-optional"/>
            <g transform="translate(55,48)">
               <rect width="178.03125" height="18" class="element-upper"/>
               <rect width="178.03125" height="18" y="18" class="element-lower"/>
               <text font-size="12" x="3.6" y="12" font-weight="bold">jahrgang</text>
               <line x1="0" y1="18" x2="178.03125" y2="18"/>
               <text font-size="12" fill="grey" x="3.6" y="30">type</text>
               <line x1="31.753125" y1="18" x2="31.753125" y2="36"/>
               <text font-size="12" x="35.353125" y="30">xsc:Code.Jahrgangsstufe</text>
               <g transform="translate(178.03125,0)"/>
            </g>
            <line x1="33"
                  y1="66"
                  x2="55"
                  y2="66"
                  class="type-structure-optional"/>
            <text font-size="11" fill="black" x="53" y="64" text-anchor="end">0..1</text>
            <line x1="33"
                  y1="18"
                  x2="33"
                  y2="66"
                  class="type-structure-optional"/>
            <g transform="translate(55,96)">
               <rect width="97.703125" height="18" class="element-upper"/>
               <rect width="97.703125" height="18" y="18" class="element-lower"/>
               <text font-size="12" x="3.6" y="12" font-weight="bold">versetzt</text>
               <line x1="0" y1="18" x2="97.703125" y2="18"/>
               <text font-size="12" fill="grey" x="3.6" y="30">type</text>
               <line x1="31.753125" y1="18" x2="31.753125" y2="36"/>
               <text font-size="12" x="35.353125" y="30">xs:boolean</text>
               <g transform="translate(97.703125,0)"/>
            </g>
            <line x1="33"
                  y1="114"
                  x2="55"
                  y2="114"
                  class="type-structure-optional"/>
            <text font-size="11"
                  fill="black"
                  x="53"
                  y="112"
                  text-anchor="end">0..1</text>
            <line x1="33"
                  y1="66"
                  x2="33"
                  y2="114"
                  class="type-structure-optional"/>
            <g transform="translate(55,144)">
               <rect width="254.62812499999998" height="18" class="element-upper"/>
               <rect width="254.62812499999998"
                     height="18"
                     y="18"
                     class="element-lower"/>
               <text font-size="12" x="3.6" y="12" font-weight="bold">versetzungsOderAusnahmetatbestandstyp</text>
               <line x1="0" y1="18" x2="254.62812499999998" y2="18"/>
               <text font-size="12" fill="grey" x="3.6" y="30">type</text>
               <line x1="31.753125" y1="18" x2="31.753125" y2="36"/>
               <g transform="translate(254.62812499999998,0)">
                  <g transform="translate(55,0)">
                     <rect width="175.046875" height="18" class="element-upper"/>
                     <rect width="175.046875" height="18" y="18" class="element-lower"/>
                     <text font-size="12" x="3.6" y="12" font-weight="bold">code</text>
                     <line x1="0" y1="18" x2="175.046875" y2="18"/>
                     <text font-size="12" fill="grey" x="3.6" y="30">type</text>
                     <line x1="31.753125" y1="18" x2="31.753125" y2="36"/>
                     <text font-size="12" x="35.353125" y="30">xsc:Code.Versetzungstyp</text>
                     <g transform="translate(175.046875,0)"/>
                  </g>
                  <line x1="33"
                        y1="18"
                        x2="55"
                        y2="18"
                        class="type-structure-required"/>
                  <text font-size="11" fill="black" x="53" y="16" text-anchor="end"/>
                  <line x1="33"
                        y1="18"
                        x2="33"
                        y2="18"
                        class="type-structure-required"/>
                  <g transform="translate(55,48)">
                     <rect width="120.8" height="18" class="element-upper"/>
                     <rect width="120.8" height="18" y="18" class="element-lower"/>
                     <text font-size="12" x="3.6" y="12" font-weight="bold">nichtGelisteterWert</text>
                     <line x1="0" y1="18" x2="120.8" y2="18"/>
                     <text font-size="12" fill="grey" x="3.6" y="30">type</text>
                     <line x1="31.753125" y1="18" x2="31.753125" y2="36"/>
                     <text font-size="12" x="35.353125" y="30">xs:string</text>
                     <g transform="translate(120.8,0)"/>
                  </g>
                  <line x1="33"
                        y1="66"
                        x2="55"
                        y2="66"
                        class="type-structure-optional"/>
                  <text font-size="11" fill="black" x="53" y="64" text-anchor="end">0..1</text>
                  <line x1="33"
                        y1="18"
                        x2="33"
                        y2="66"
                        class="type-structure-optional"/>
                  <circle cx="15"
                          cy="18"
                          r="10"
                          stroke="black"
                          fill="rgb(251, 251, 251)"/>
                  <line x1="0"
                        y1="18"
                        x2="5"
                        y2="18"
                        class="type-structure-required"/>
                  <line x1="25"
                        y1="18"
                        x2="33"
                        y2="18"
                        class="type-structure-required"/>
                  <circle cx="10" cy="18" r="1.2" stroke="black" fill="black"/>
                  <circle cx="15" cy="18" r="1.2" stroke="black" fill="black"/>
                  <circle cx="20" cy="18" r="1.2" stroke="black" fill="black"/>
                  <line x1="7" y1="18" x2="23" y2="18"/>
               </g>
            </g>
            <line x1="33"
                  y1="162"
                  x2="55"
                  y2="162"
                  class="type-structure-optional"/>
            <text font-size="11"
                  fill="black"
                  x="53"
                  y="160"
                  text-anchor="end">0..1</text>
            <line x1="33"
                  y1="114"
                  x2="33"
                  y2="162"
                  class="type-structure-optional"/>
            <circle cx="15"
                    cy="18"
                    r="10"
                    stroke="black"
                    fill="rgb(251, 251, 251)"/>
            <line x1="0"
                  y1="18"
                  x2="5"
                  y2="18"
                  class="type-structure-optional"/>
            <line x1="25"
                  y1="18"
                  x2="33"
                  y2="18"
                  class="type-structure-optional"/>
            <circle cx="10" cy="18" r="1.2" stroke="black" fill="black"/>
            <circle cx="15" cy="18" r="1.2" stroke="black" fill="black"/>
            <circle cx="20" cy="18" r="1.2" stroke="black" fill="black"/>
            <line x1="7" y1="18" x2="23" y2="18"/>
         </g>
      </g>
      <line x1="33"
            y1="162"
            x2="55"
            y2="162"
            class="type-structure-optional"/>
      <text font-size="11"
            fill="black"
            x="53"
            y="160"
            text-anchor="end">0..1</text>
      <line x1="33"
            y1="66"
            x2="33"
            y2="162"
            class="type-structure-optional"/>
      <g transform="translate(55,384)">
         <rect width="174.03125" height="18" class="element-upper"/>
         <rect width="174.03125" height="18" y="18" class="element-lower"/>
         <text font-size="12" x="3.6" y="12" font-weight="bold">aufnehmendeSchule</text>
         <line x1="0" y1="18" x2="174.03125" y2="18"/>
         <text font-size="12" fill="grey" x="3.6" y="30">type</text>
         <line x1="31.753125" y1="18" x2="31.753125" y2="36"/>
         <text font-size="12" x="35.353125" y="30">xsc:AufnehmendeSchule</text>
         <g transform="translate(174.03125,0)"/>
      </g>
      <line x1="33"
            y1="402"
            x2="55"
            y2="402"
            class="type-structure-optional"/>
      <text font-size="11"
            fill="black"
            x="53"
            y="400"
            text-anchor="end">0..1</text>
      <line x1="33"
            y1="162"
            x2="33"
            y2="402"
            class="type-structure-optional"/>
      <g transform="translate(55,432)">
         <rect width="149.03125" height="18" class="element-upper"/>
         <rect width="149.03125" height="18" y="18" class="element-lower"/>
         <text font-size="12" x="3.6" y="12" font-weight="bold">besuchteSchule</text>
         <line x1="0" y1="18" x2="149.03125" y2="18"/>
         <text font-size="12" fill="grey" x="3.6" y="30">type</text>
         <line x1="31.753125" y1="18" x2="31.753125" y2="36"/>
         <text font-size="12" x="35.353125" y="30">xsc:BesuchteSchule</text>
         <g transform="translate(149.03125,0)"/>
      </g>
      <line x1="33"
            y1="450"
            x2="55"
            y2="450"
            class="type-structure-optional"/>
      <text font-size="11"
            fill="black"
            x="53"
            y="448"
            text-anchor="end">0..1</text>
      <line x1="33"
            y1="402"
            x2="33"
            y2="450"
            class="type-structure-optional"/>
      <g transform="translate(55,480)">
         <rect width="243.703125" height="18" class="element-upper"/>
         <rect width="243.703125" height="18" y="18" class="element-lower"/>
         <text font-size="12" x="3.6" y="12" font-weight="bold">schulformspezifischeZusatzdaten</text>
         <line x1="0" y1="18" x2="243.703125" y2="18"/>
         <text font-size="12" fill="grey" x="3.6" y="30">type</text>
         <line x1="31.753125" y1="18" x2="31.753125" y2="36"/>
         <text font-size="12" x="35.353125" y="30">xsc:SchulformspezifischeZusatzdaten</text>
         <g transform="translate(243.703125,0)"/>
      </g>
      <line x1="33"
            y1="498"
            x2="55"
            y2="498"
            class="type-structure-optional"/>
      <text font-size="11"
            fill="black"
            x="53"
            y="496"
            text-anchor="end">0..1</text>
      <line x1="33"
            y1="450"
            x2="33"
            y2="498"
            class="type-structure-optional"/>
      <g transform="translate(55,528)">
         <rect width="217.390625" height="18" class="element-upper"/>
         <rect width="217.390625" height="18" y="18" class="element-lower"/>
         <text font-size="12" x="3.6" y="12" font-weight="bold">notenuebersichtUndZeugnis</text>
         <line x1="0" y1="18" x2="217.390625" y2="18"/>
         <text font-size="12" fill="grey" x="3.6" y="30">type</text>
         <line x1="31.753125" y1="18" x2="31.753125" y2="36"/>
         <text font-size="12" x="35.353125" y="30">xsc:NotenuebersichtUndZeugnis</text>
         <g transform="translate(217.390625,0)"/>
      </g>
      <line x1="33"
            y1="546"
            x2="55"
            y2="546"
            class="type-structure-optional"/>
      <text font-size="11"
            fill="black"
            x="53"
            y="544"
            text-anchor="end">0..*</text>
      <line x1="33"
            y1="498"
            x2="33"
            y2="546"
            class="type-structure-optional"/>
      <g transform="translate(55,576)">
         <rect width="113.390625" height="18" class="element-upper"/>
         <rect width="113.390625" height="18" y="18" class="element-lower"/>
         <text font-size="12" x="3.6" y="12" font-weight="bold">wahpflichtkurs</text>
         <line x1="0" y1="18" x2="113.390625" y2="18"/>
         <text font-size="12" fill="grey" x="3.6" y="30">type</text>
         <line x1="31.753125" y1="18" x2="31.753125" y2="36"/>
         <text font-size="12" x="35.353125" y="30">xsc:Schulkurs</text>
         <g transform="translate(113.390625,0)"/>
      </g>
      <line x1="33"
            y1="594"
            x2="55"
            y2="594"
            class="type-structure-optional"/>
      <text font-size="11"
            fill="black"
            x="53"
            y="592"
            text-anchor="end">0..*</text>
      <line x1="33"
            y1="546"
            x2="33"
            y2="594"
            class="type-structure-optional"/>
      <g transform="translate(55,624)">
         <rect width="140.03125" height="18" class="element-upper"/>
         <rect width="140.03125" height="18" y="18" class="element-lower"/>
         <text font-size="12" x="3.6" y="12" font-weight="bold">fremdsprache</text>
         <line x1="0" y1="18" x2="140.03125" y2="18"/>
         <text font-size="12" fill="grey" x="3.6" y="30">type</text>
         <line x1="31.753125" y1="18" x2="31.753125" y2="36"/>
         <text font-size="12" x="35.353125" y="30">xsc:Fremdsprache</text>
         <g transform="translate(140.03125,0)"/>
      </g>
      <line x1="33"
            y1="642"
            x2="55"
            y2="642"
            class="type-structure-optional"/>
      <text font-size="11"
            fill="black"
            x="53"
            y="640"
            text-anchor="end">0..*</text>
      <line x1="33"
            y1="594"
            x2="33"
            y2="642"
            class="type-structure-optional"/>
      <g transform="translate(55,672)">
         <rect width="154.703125" height="18" class="element-upper"/>
         <rect width="154.703125" height="18" y="18" class="element-lower"/>
         <text font-size="12" x="3.6" y="12" font-weight="bold">konfession</text>
         <line x1="0" y1="18" x2="154.703125" y2="18"/>
         <text font-size="12" fill="grey" x="3.6" y="30">type</text>
         <line x1="31.753125" y1="18" x2="31.753125" y2="36"/>
         <text font-size="12" x="35.353125" y="30">xsc:Code.Konfession</text>
         <g transform="translate(154.703125,0)"/>
      </g>
      <line x1="33"
            y1="690"
            x2="55"
            y2="690"
            class="type-structure-optional"/>
      <text font-size="11"
            fill="black"
            x="53"
            y="688"
            text-anchor="end">0..1</text>
      <line x1="33"
            y1="642"
            x2="33"
            y2="690"
            class="type-structure-optional"/>
      <g transform="translate(55,720)">
         <rect width="137.703125" height="18" class="element-upper"/>
         <rect width="137.703125" height="18" y="18" class="element-lower"/>
         <text font-size="12" x="3.6" y="12" font-weight="bold">schullaufbahn</text>
         <line x1="0" y1="18" x2="137.703125" y2="18"/>
         <text font-size="12" fill="grey" x="3.6" y="30">type</text>
         <line x1="31.753125" y1="18" x2="31.753125" y2="36"/>
         <text font-size="12" x="35.353125" y="30">xsc:Schullaufbahn</text>
         <g transform="translate(137.703125,0)"/>
      </g>
      <line x1="33"
            y1="738"
            x2="55"
            y2="738"
            class="type-structure-optional"/>
      <text font-size="11"
            fill="black"
            x="53"
            y="736"
            text-anchor="end">0..1</text>
      <line x1="33"
            y1="690"
            x2="33"
            y2="738"
            class="type-structure-optional"/>
      <g transform="translate(55,768)">
         <rect width="107.03125" height="18" class="element-upper"/>
         <rect width="107.03125" height="18" y="18" class="element-lower"/>
         <text font-size="12" x="3.6" y="12" font-weight="bold">fehltage</text>
         <line x1="0" y1="18" x2="107.03125" y2="18"/>
         <text font-size="12" fill="grey" x="3.6" y="30">type</text>
         <line x1="31.753125" y1="18" x2="31.753125" y2="36"/>
         <text font-size="12" x="35.353125" y="30">xsc:Fehltage</text>
         <g transform="translate(107.03125,0)"/>
      </g>
      <line x1="33"
            y1="786"
            x2="55"
            y2="786"
            class="type-structure-optional"/>
      <text font-size="11"
            fill="black"
            x="53"
            y="784"
            text-anchor="end">0..1</text>
      <line x1="33"
            y1="738"
            x2="33"
            y2="786"
            class="type-structure-optional"/>
      <g transform="translate(55,816)">
         <rect width="114.078125" height="18" class="element-upper"/>
         <rect width="114.078125" height="18" y="18" class="element-lower"/>
         <text font-size="12" x="3.6" y="12" font-weight="bold">praktikum</text>
         <line x1="0" y1="18" x2="114.078125" y2="18"/>
         <text font-size="12" fill="grey" x="3.6" y="30">type</text>
         <line x1="31.753125" y1="18" x2="31.753125" y2="36"/>
         <text font-size="12" x="35.353125" y="30">xbd:Praktikum</text>
         <g transform="translate(114.078125,0)"/>
      </g>
      <line x1="33"
            y1="834"
            x2="55"
            y2="834"
            class="type-structure-optional"/>
      <text font-size="11"
            fill="black"
            x="53"
            y="832"
            text-anchor="end">0..*</text>
      <line x1="33"
            y1="786"
            x2="33"
            y2="834"
            class="type-structure-optional"/>
      <g transform="translate(55,864)">
         <rect width="124.734375" height="18" class="element-upper"/>
         <rect width="124.734375" height="18" y="18" class="element-lower"/>
         <text font-size="12" x="3.6" y="12" font-weight="bold">erweiterung</text>
         <line x1="0" y1="18" x2="124.734375" y2="18"/>
         <text font-size="12" fill="grey" x="3.6" y="30">type</text>
         <line x1="31.753125" y1="18" x2="31.753125" y2="36"/>
         <text font-size="12" x="35.353125" y="30">xsc:Erweiterung</text>
         <g transform="translate(124.734375,0)"/>
      </g>
      <line x1="33"
            y1="882"
            x2="55"
            y2="882"
            class="type-structure-optional"/>
      <text font-size="11"
            fill="black"
            x="53"
            y="880"
            text-anchor="end">0..1</text>
      <line x1="33"
            y1="834"
            x2="33"
            y2="882"
            class="type-structure-optional"/>
      <g transform="translate(55,912)">
         <rect width="137.78125" height="18" class="element-upper"/>
         <rect width="137.78125" height="18" y="18" class="element-lower"/>
         <text font-size="12" x="3.6" y="12" font-weight="bold">ds:Signature (ref)</text>
         <line x1="0" y1="18" x2="137.78125" y2="18"/>
         <text font-size="12" fill="grey" x="3.6" y="30">type</text>
         <line x1="31.753125" y1="18" x2="31.753125" y2="36"/>
         <text font-size="12" x="35.353125" y="30">(see element def.)</text>
         <g transform="translate(137.78125,0)"/>
      </g>
      <line x1="33"
            y1="930"
            x2="55"
            y2="930"
            class="type-structure-optional"/>
      <text font-size="11"
            fill="black"
            x="53"
            y="928"
            text-anchor="end">0..1</text>
      <line x1="33"
            y1="882"
            x2="33"
            y2="930"
            class="type-structure-optional"/>
      <circle cx="15"
              cy="18"
              r="10"
              stroke="black"
              fill="rgb(251, 251, 251)"/>
      <line x1="0"
            y1="18"
            x2="5"
            y2="18"
            class="type-structure-required"/>
      <line x1="25"
            y1="18"
            x2="33"
            y2="18"
            class="type-structure-required"/>
      <circle cx="10" cy="18" r="1.2" stroke="black" fill="black"/>
      <circle cx="15" cy="18" r="1.2" stroke="black" fill="black"/>
      <circle cx="20" cy="18" r="1.2" stroke="black" fill="black"/>
      <line x1="7" y1="18" x2="23" y2="18"/>
   </g>
</svg>
