<?xml version="1.0" encoding="UTF-8"?>
<svg xmlns="http://www.w3.org/2000/svg"
     width="707.7562499999999"
     height="1258">
   <defs>
      <style type="text/css">
                        text {
                            font-family: 'Arial';
                            fill: black;
                        }
                        text.at {
                            font-family: 'Arial';
                            fill: rgb(242, 152, 0);
                        }
                        line {
                            stroke: black;
                        }
                        line.type-structure {
                            stroke: black;
                        }
                        line.type-structure-optional {
                            stroke: black;
                            stroke-dasharray: 4, 4;
                        }
                        rect.attribute-upper {
                            stroke: black;
                            fill: rgb(255, 239, 211);
                        }
                        rect.element-upper {
                            stroke: black;
                            fill: rgb(215, 227, 249);
                        }
                        rect.element-lower {
                            stroke: black;
                            fill: rgb(236, 242, 252);
                        }
                        a text {
                            fill: black;
                        } 
                    </style>
   </defs>
   <rect width="697.7562499999999"
         height="1248"
         stroke-dasharray="3,3"
         rx="1"
         ry="1"
         style="stroke: grey;fill: white;"/>
   <text font-size="14" x="3.6" y="18" font-weight="bold">element schueler.abiturzeugnis.0002 (anonymous type)</text>
   <text font-size="12" x="3.6" y="34.8"> (extension of xbd:Dokument)</text>
   <g transform="translate(10,46)">
      <g transform="translate(55,0)">
         <rect width="121.89375" height="18" class="element-upper"/>
         <rect width="121.89375" height="18" y="18" class="element-lower"/>
         <text font-size="12" x="3.6" y="12" font-weight="bold">allgemeineAngaben</text>
         <line x1="0" y1="18" x2="121.89375" y2="18"/>
         <text font-size="12" fill="grey" x="3.6" y="30">type</text>
         <line x1="31.753125" y1="18" x2="31.753125" y2="36"/>
         <g transform="translate(121.89375,0)">
            <g transform="translate(55,0)">
               <rect width="152.109375" height="18" class="element-upper"/>
               <rect width="152.109375" height="18" y="18" class="element-lower"/>
               <text font-size="12" x="3.6" y="12" font-weight="bold">artDesZeugnisses</text>
               <line x1="0" y1="18" x2="152.109375" y2="18"/>
               <text font-size="12" fill="grey" x="3.6" y="30">type</text>
               <line x1="31.753125" y1="18" x2="31.753125" y2="36"/>
               <text font-size="12" x="35.353125" y="30">xsc:Code.Zeugnisart</text>
               <g transform="translate(152.109375,0)"/>
            </g>
            <line x1="33"
                  y1="18"
                  x2="55"
                  y2="18"
                  class="type-structure-required"/>
            <text font-size="11" fill="black" x="53" y="16" text-anchor="end"/>
            <line x1="33"
                  y1="18"
                  x2="33"
                  y2="18"
                  class="type-structure-required"/>
            <g transform="translate(55,48)">
               <rect width="159.671875" height="18" class="element-upper"/>
               <rect width="159.671875" height="18" y="18" class="element-lower"/>
               <text font-size="12" x="3.6" y="12" font-weight="bold">bundesland</text>
               <line x1="0" y1="18" x2="159.671875" y2="18"/>
               <text font-size="12" fill="grey" x="3.6" y="30">type</text>
               <line x1="31.753125" y1="18" x2="31.753125" y2="36"/>
               <text font-size="12" x="35.353125" y="30">xbd:Code.Bundesland</text>
               <g transform="translate(159.671875,0)"/>
            </g>
            <line x1="33"
                  y1="66"
                  x2="55"
                  y2="66"
                  class="type-structure-optional"/>
            <text font-size="11" fill="black" x="53" y="64" text-anchor="end">0..1</text>
            <line x1="33"
                  y1="18"
                  x2="33"
                  y2="66"
                  class="type-structure-required"/>
            <g transform="translate(55,96)">
               <rect width="117.640625" height="18" class="element-upper"/>
               <rect width="117.640625" height="18" y="18" class="element-lower"/>
               <text font-size="12" x="3.6" y="12" font-weight="bold">niveauEQR</text>
               <line x1="0" y1="18" x2="117.640625" y2="18"/>
               <text font-size="12" fill="grey" x="3.6" y="30">type</text>
               <line x1="31.753125" y1="18" x2="31.753125" y2="36"/>
               <text font-size="12" x="35.353125" y="30">xbd:Code.EQF</text>
               <g transform="translate(117.640625,0)"/>
            </g>
            <line x1="33"
                  y1="114"
                  x2="55"
                  y2="114"
                  class="type-structure-optional"/>
            <text font-size="11"
                  fill="black"
                  x="53"
                  y="112"
                  text-anchor="end">0..1</text>
            <line x1="33"
                  y1="66"
                  x2="33"
                  y2="114"
                  class="type-structure-required"/>
            <g transform="translate(55,144)">
               <rect width="150.21875" height="18" class="element-upper"/>
               <rect width="150.21875" height="18" y="18" class="element-lower"/>
               <text font-size="12" x="3.6" y="12" font-weight="bold">artDerHZB</text>
               <line x1="0" y1="18" x2="150.21875" y2="18"/>
               <text font-size="12" fill="grey" x="3.6" y="30">type</text>
               <line x1="31.753125" y1="18" x2="31.753125" y2="36"/>
               <text font-size="12" x="35.353125" y="30">xsc:Code.ArtDerHZB</text>
               <g transform="translate(150.21875,0)"/>
            </g>
            <line x1="33"
                  y1="162"
                  x2="55"
                  y2="162"
                  class="type-structure-optional"/>
            <text font-size="11"
                  fill="black"
                  x="53"
                  y="160"
                  text-anchor="end">0..*</text>
            <line x1="33"
                  y1="114"
                  x2="33"
                  y2="162"
                  class="type-structure-required"/>
            <g transform="translate(55,192)">
               <rect width="152.47187499999998" height="18" class="element-upper"/>
               <rect width="152.47187499999998"
                     height="18"
                     y="18"
                     class="element-lower"/>
               <text font-size="12" x="3.6" y="12" font-weight="bold">artDesSchulabschlusses</text>
               <line x1="0" y1="18" x2="152.47187499999998" y2="18"/>
               <text font-size="12" fill="grey" x="3.6" y="30">type</text>
               <line x1="31.753125" y1="18" x2="31.753125" y2="36"/>
               <g transform="translate(152.47187499999998,0)">
                  <g transform="translate(55,0)">
                     <rect width="232.390625" height="18" class="element-upper"/>
                     <rect width="232.390625" height="18" y="18" class="element-lower"/>
                     <text font-size="12" x="3.6" y="12" font-weight="bold">code</text>
                     <line x1="0" y1="18" x2="232.390625" y2="18"/>
                     <text font-size="12" fill="grey" x="3.6" y="30">type</text>
                     <line x1="31.753125" y1="18" x2="31.753125" y2="36"/>
                     <text font-size="12" x="35.353125" y="30">xbd:Code.ArtDesSchulabschlusses</text>
                     <g transform="translate(232.390625,0)"/>
                  </g>
                  <line x1="33"
                        y1="18"
                        x2="55"
                        y2="18"
                        class="type-structure-required"/>
                  <text font-size="11" fill="black" x="53" y="16" text-anchor="end"/>
                  <line x1="33"
                        y1="18"
                        x2="33"
                        y2="18"
                        class="type-structure-required"/>
                  <g transform="translate(55,48)">
                     <rect width="120.8" height="18" class="element-upper"/>
                     <rect width="120.8" height="18" y="18" class="element-lower"/>
                     <text font-size="12" x="3.6" y="12" font-weight="bold">nichtGelisteterWert</text>
                     <line x1="0" y1="18" x2="120.8" y2="18"/>
                     <text font-size="12" fill="grey" x="3.6" y="30">type</text>
                     <line x1="31.753125" y1="18" x2="31.753125" y2="36"/>
                     <text font-size="12" x="35.353125" y="30">xs:string</text>
                     <g transform="translate(120.8,0)"/>
                  </g>
                  <line x1="33"
                        y1="66"
                        x2="55"
                        y2="66"
                        class="type-structure-optional"/>
                  <text font-size="11" fill="black" x="53" y="64" text-anchor="end">0..1</text>
                  <line x1="33"
                        y1="18"
                        x2="33"
                        y2="66"
                        class="type-structure-optional"/>
                  <circle cx="15"
                          cy="18"
                          r="10"
                          stroke="black"
                          fill="rgb(251, 251, 251)"/>
                  <line x1="0"
                        y1="18"
                        x2="5"
                        y2="18"
                        class="type-structure-required"/>
                  <line x1="25"
                        y1="18"
                        x2="33"
                        y2="18"
                        class="type-structure-required"/>
                  <circle cx="10" cy="18" r="1.2" stroke="black" fill="black"/>
                  <circle cx="15" cy="18" r="1.2" stroke="black" fill="black"/>
                  <circle cx="20" cy="18" r="1.2" stroke="black" fill="black"/>
                  <line x1="7" y1="18" x2="23" y2="18"/>
               </g>
            </g>
            <line x1="33"
                  y1="210"
                  x2="55"
                  y2="210"
                  class="type-structure-required"/>
            <text font-size="11"
                  fill="black"
                  x="53"
                  y="208"
                  text-anchor="end"/>
            <line x1="33"
                  y1="162"
                  x2="33"
                  y2="210"
                  class="type-structure-required"/>
            <g transform="translate(55,288)">
               <rect width="54.765625" height="18" class="element-upper"/>
               <rect width="54.765625" height="18" y="18" class="element-lower"/>
               <text font-size="12" x="3.6" y="12" font-weight="bold">erwerb</text>
               <line x1="0" y1="18" x2="54.765625" y2="18"/>
               <text font-size="12" fill="grey" x="3.6" y="30">type</text>
               <line x1="31.753125" y1="18" x2="31.753125" y2="36"/>
               <g transform="translate(54.765625,0)">
                  <g transform="translate(55,0)">
                     <rect width="77.03125" height="18" class="element-upper"/>
                     <rect width="77.03125" height="18" y="18" class="element-lower"/>
                     <text font-size="12" x="3.6" y="12" font-weight="bold">datum</text>
                     <line x1="0" y1="18" x2="77.03125" y2="18"/>
                     <text font-size="12" fill="grey" x="3.6" y="30">type</text>
                     <line x1="31.753125" y1="18" x2="31.753125" y2="36"/>
                     <text font-size="12" x="35.353125" y="30">xs:date</text>
                     <g transform="translate(77.03125,0)"/>
                  </g>
                  <line x1="33"
                        y1="18"
                        x2="55"
                        y2="18"
                        class="type-structure-required"/>
                  <text font-size="11" fill="black" x="53" y="16" text-anchor="end"/>
                  <line x1="33"
                        y1="18"
                        x2="33"
                        y2="18"
                        class="type-structure-required"/>
                  <g transform="translate(55,48)">
                     <rect width="124.03125" height="18" class="element-upper"/>
                     <rect width="124.03125" height="18" y="18" class="element-lower"/>
                     <text font-size="12" x="3.6" y="12" font-weight="bold">ort</text>
                     <line x1="0" y1="18" x2="124.03125" y2="18"/>
                     <text font-size="12" fill="grey" x="3.6" y="30">type</text>
                     <line x1="31.753125" y1="18" x2="31.753125" y2="36"/>
                     <text font-size="12" x="35.353125" y="30">xsc:Ortsangabe</text>
                     <g transform="translate(124.03125,0)"/>
                  </g>
                  <line x1="33"
                        y1="66"
                        x2="55"
                        y2="66"
                        class="type-structure-required"/>
                  <text font-size="11" fill="black" x="53" y="64" text-anchor="end"/>
                  <line x1="33"
                        y1="18"
                        x2="33"
                        y2="66"
                        class="type-structure-required"/>
                  <g transform="translate(55,96)">
                     <rect width="236.734375" height="18" class="element-upper"/>
                     <rect width="236.734375" height="18" y="18" class="element-lower"/>
                     <text font-size="12" x="3.6" y="12" font-weight="bold">verwaltungspolitischeKodierung</text>
                     <line x1="0" y1="18" x2="236.734375" y2="18"/>
                     <text font-size="12" fill="grey" x="3.6" y="30">type</text>
                     <line x1="31.753125" y1="18" x2="31.753125" y2="36"/>
                     <text font-size="12" x="35.353125" y="30">xsc:VerwaltungspolitischeKodierung</text>
                     <g transform="translate(236.734375,0)"/>
                  </g>
                  <line x1="33"
                        y1="114"
                        x2="55"
                        y2="114"
                        class="type-structure-optional"/>
                  <text font-size="11"
                        fill="black"
                        x="53"
                        y="112"
                        text-anchor="end">0..1</text>
                  <line x1="33"
                        y1="66"
                        x2="33"
                        y2="114"
                        class="type-structure-optional"/>
                  <circle cx="15"
                          cy="18"
                          r="10"
                          stroke="black"
                          fill="rgb(251, 251, 251)"/>
                  <line x1="0"
                        y1="18"
                        x2="5"
                        y2="18"
                        class="type-structure-required"/>
                  <line x1="25"
                        y1="18"
                        x2="33"
                        y2="18"
                        class="type-structure-required"/>
                  <circle cx="10" cy="18" r="1.2" stroke="black" fill="black"/>
                  <circle cx="15" cy="18" r="1.2" stroke="black" fill="black"/>
                  <circle cx="20" cy="18" r="1.2" stroke="black" fill="black"/>
                  <line x1="7" y1="18" x2="23" y2="18"/>
               </g>
            </g>
            <line x1="33"
                  y1="306"
                  x2="55"
                  y2="306"
                  class="type-structure-required"/>
            <text font-size="11"
                  fill="black"
                  x="53"
                  y="304"
                  text-anchor="end"/>
            <line x1="33"
                  y1="210"
                  x2="33"
                  y2="306"
                  class="type-structure-required"/>
            <circle cx="15"
                    cy="18"
                    r="10"
                    stroke="black"
                    fill="rgb(251, 251, 251)"/>
            <line x1="0"
                  y1="18"
                  x2="5"
                  y2="18"
                  class="type-structure-required"/>
            <line x1="25"
                  y1="18"
                  x2="33"
                  y2="18"
                  class="type-structure-required"/>
            <circle cx="10" cy="18" r="1.2" stroke="black" fill="black"/>
            <circle cx="15" cy="18" r="1.2" stroke="black" fill="black"/>
            <circle cx="20" cy="18" r="1.2" stroke="black" fill="black"/>
            <line x1="7" y1="18" x2="23" y2="18"/>
         </g>
      </g>
      <line x1="33"
            y1="18"
            x2="55"
            y2="18"
            class="type-structure-required"/>
      <text font-size="11" fill="black" x="53" y="16" text-anchor="end"/>
      <line x1="33"
            y1="18"
            x2="33"
            y2="18"
            class="type-structure-required"/>
      <g transform="translate(55,432)">
         <rect width="181.390625" height="18" class="element-upper"/>
         <rect width="181.390625" height="18" y="18" class="element-lower"/>
         <text font-size="12" x="3.6" y="12" font-weight="bold">schueler</text>
         <line x1="0" y1="18" x2="181.390625" y2="18"/>
         <text font-size="12" fill="grey" x="3.6" y="30">type</text>
         <line x1="31.753125" y1="18" x2="31.753125" y2="36"/>
         <text font-size="12" x="35.353125" y="30">xsc:SchuelerAbiturzeugnis</text>
         <g transform="translate(181.390625,0)"/>
      </g>
      <line x1="33"
            y1="450"
            x2="55"
            y2="450"
            class="type-structure-required"/>
      <text font-size="11"
            fill="black"
            x="53"
            y="448"
            text-anchor="end"/>
      <line x1="33"
            y1="18"
            x2="33"
            y2="450"
            class="type-structure-required"/>
      <g transform="translate(55,480)">
         <rect width="97.03125" height="18" class="element-upper"/>
         <rect width="97.03125" height="18" y="18" class="element-lower"/>
         <text font-size="12" x="3.6" y="12" font-weight="bold">schule</text>
         <line x1="0" y1="18" x2="97.03125" y2="18"/>
         <text font-size="12" fill="grey" x="3.6" y="30">type</text>
         <line x1="31.753125" y1="18" x2="31.753125" y2="36"/>
         <text font-size="12" x="35.353125" y="30">xsc:Schule</text>
         <g transform="translate(97.03125,0)"/>
      </g>
      <line x1="33"
            y1="498"
            x2="55"
            y2="498"
            class="type-structure-required"/>
      <text font-size="11"
            fill="black"
            x="53"
            y="496"
            text-anchor="end"/>
      <line x1="33"
            y1="450"
            x2="33"
            y2="498"
            class="type-structure-required"/>
      <g transform="translate(55,528)">
         <rect width="54.765625" height="18" class="element-upper"/>
         <rect width="54.765625" height="18" y="18" class="element-lower"/>
         <text font-size="12" x="3.6" y="12" font-weight="bold">block-i</text>
         <line x1="0" y1="18" x2="54.765625" y2="18"/>
         <text font-size="12" fill="grey" x="3.6" y="30">type</text>
         <line x1="31.753125" y1="18" x2="31.753125" y2="36"/>
         <g transform="translate(54.765625,0)">
            <g transform="translate(55,0)">
               <rect width="113.390625" height="18" class="element-upper"/>
               <rect width="113.390625" height="18" y="18" class="element-lower"/>
               <text font-size="12" x="3.6" y="12" font-weight="bold">kurs</text>
               <line x1="0" y1="18" x2="113.390625" y2="18"/>
               <text font-size="12" fill="grey" x="3.6" y="30">type</text>
               <line x1="31.753125" y1="18" x2="31.753125" y2="36"/>
               <text font-size="12" x="35.353125" y="30">xsc:Schulkurs</text>
               <g transform="translate(113.390625,0)"/>
            </g>
            <line x1="33"
                  y1="18"
                  x2="55"
                  y2="18"
                  class="type-structure-required"/>
            <text font-size="11" fill="black" x="53" y="16" text-anchor="end">1..*</text>
            <line x1="33"
                  y1="18"
                  x2="33"
                  y2="18"
                  class="type-structure-required"/>
            <g transform="translate(55,48)">
               <rect width="164.390625" height="18" class="element-upper"/>
               <rect width="164.390625" height="18" y="18" class="element-lower"/>
               <text font-size="12" x="3.6" y="12" font-weight="bold">weitereLeistung</text>
               <line x1="0" y1="18" x2="164.390625" y2="18"/>
               <text font-size="12" fill="grey" x="3.6" y="30">type</text>
               <line x1="31.753125" y1="18" x2="31.753125" y2="36"/>
               <text font-size="12" x="35.353125" y="30">xsc:Pruefungsergebnis</text>
               <g transform="translate(164.390625,0)"/>
            </g>
            <line x1="33"
                  y1="66"
                  x2="55"
                  y2="66"
                  class="type-structure-optional"/>
            <text font-size="11" fill="black" x="53" y="64" text-anchor="end">0..*</text>
            <line x1="33"
                  y1="18"
                  x2="33"
                  y2="66"
                  class="type-structure-optional"/>
            <g transform="translate(55,96)">
               <rect width="146.671875" height="18" class="element-upper"/>
               <rect width="146.671875" height="18" y="18" class="element-lower"/>
               <text font-size="12" x="3.6" y="12" font-weight="bold">beschreibung</text>
               <line x1="0" y1="18" x2="146.671875" y2="18"/>
               <text font-size="12" fill="grey" x="3.6" y="30">type</text>
               <line x1="31.753125" y1="18" x2="31.753125" y2="36"/>
               <text font-size="12" x="35.353125" y="30">xbd:String.Localized</text>
               <g transform="translate(146.671875,0)"/>
            </g>
            <line x1="33"
                  y1="114"
                  x2="55"
                  y2="114"
                  class="type-structure-optional"/>
            <text font-size="11"
                  fill="black"
                  x="53"
                  y="112"
                  text-anchor="end">0..*</text>
            <line x1="33"
                  y1="66"
                  x2="33"
                  y2="114"
                  class="type-structure-optional"/>
            <circle cx="15"
                    cy="18"
                    r="10"
                    stroke="black"
                    fill="rgb(251, 251, 251)"/>
            <line x1="0"
                  y1="18"
                  x2="5"
                  y2="18"
                  class="type-structure-required"/>
            <line x1="25"
                  y1="18"
                  x2="33"
                  y2="18"
                  class="type-structure-required"/>
            <circle cx="10" cy="18" r="1.2" stroke="black" fill="black"/>
            <circle cx="15" cy="18" r="1.2" stroke="black" fill="black"/>
            <circle cx="20" cy="18" r="1.2" stroke="black" fill="black"/>
            <line x1="7" y1="18" x2="23" y2="18"/>
         </g>
      </g>
      <line x1="33"
            y1="546"
            x2="55"
            y2="546"
            class="type-structure-required"/>
      <text font-size="11"
            fill="black"
            x="53"
            y="544"
            text-anchor="end"/>
      <line x1="33"
            y1="498"
            x2="33"
            y2="546"
            class="type-structure-required"/>
      <g transform="translate(55,672)">
         <rect width="54.765625" height="18" class="element-upper"/>
         <rect width="54.765625" height="18" y="18" class="element-lower"/>
         <text font-size="12" x="3.6" y="12" font-weight="bold">block-ii</text>
         <line x1="0" y1="18" x2="54.765625" y2="18"/>
         <text font-size="12" fill="grey" x="3.6" y="30">type</text>
         <line x1="31.753125" y1="18" x2="31.753125" y2="36"/>
         <g transform="translate(54.765625,0)">
            <g transform="translate(55,0)">
               <rect width="164.390625" height="18" class="element-upper"/>
               <rect width="164.390625" height="18" y="18" class="element-lower"/>
               <text font-size="12" x="3.6" y="12" font-weight="bold">pruefungsergebnis</text>
               <line x1="0" y1="18" x2="164.390625" y2="18"/>
               <text font-size="12" fill="grey" x="3.6" y="30">type</text>
               <line x1="31.753125" y1="18" x2="31.753125" y2="36"/>
               <text font-size="12" x="35.353125" y="30">xsc:Pruefungsergebnis</text>
               <g transform="translate(164.390625,0)"/>
            </g>
            <line x1="33"
                  y1="18"
                  x2="55"
                  y2="18"
                  class="type-structure-required"/>
            <text font-size="11" fill="black" x="53" y="16" text-anchor="end">1..*</text>
            <line x1="33"
                  y1="18"
                  x2="33"
                  y2="18"
                  class="type-structure-required"/>
            <g transform="translate(55,48)">
               <rect width="146.671875" height="18" class="element-upper"/>
               <rect width="146.671875" height="18" y="18" class="element-lower"/>
               <text font-size="12" x="3.6" y="12" font-weight="bold">beschreibung</text>
               <line x1="0" y1="18" x2="146.671875" y2="18"/>
               <text font-size="12" fill="grey" x="3.6" y="30">type</text>
               <line x1="31.753125" y1="18" x2="31.753125" y2="36"/>
               <text font-size="12" x="35.353125" y="30">xbd:String.Localized</text>
               <g transform="translate(146.671875,0)"/>
            </g>
            <line x1="33"
                  y1="66"
                  x2="55"
                  y2="66"
                  class="type-structure-optional"/>
            <text font-size="11" fill="black" x="53" y="64" text-anchor="end">0..*</text>
            <line x1="33"
                  y1="18"
                  x2="33"
                  y2="66"
                  class="type-structure-optional"/>
            <circle cx="15"
                    cy="18"
                    r="10"
                    stroke="black"
                    fill="rgb(251, 251, 251)"/>
            <line x1="0"
                  y1="18"
                  x2="5"
                  y2="18"
                  class="type-structure-required"/>
            <line x1="25"
                  y1="18"
                  x2="33"
                  y2="18"
                  class="type-structure-required"/>
            <circle cx="10" cy="18" r="1.2" stroke="black" fill="black"/>
            <circle cx="15" cy="18" r="1.2" stroke="black" fill="black"/>
            <circle cx="20" cy="18" r="1.2" stroke="black" fill="black"/>
            <line x1="7" y1="18" x2="23" y2="18"/>
         </g>
      </g>
      <line x1="33"
            y1="690"
            x2="55"
            y2="690"
            class="type-structure-required"/>
      <text font-size="11"
            fill="black"
            x="53"
            y="688"
            text-anchor="end"/>
      <line x1="33"
            y1="546"
            x2="33"
            y2="690"
            class="type-structure-required"/>
      <g transform="translate(55,768)">
         <rect width="54.765625" height="18" class="element-upper"/>
         <rect width="54.765625" height="18" y="18" class="element-lower"/>
         <text font-size="12" x="3.6" y="12" font-weight="bold">block-iii</text>
         <line x1="0" y1="18" x2="54.765625" y2="18"/>
         <text font-size="12" fill="grey" x="3.6" y="30">type</text>
         <line x1="31.753125" y1="18" x2="31.753125" y2="36"/>
         <g transform="translate(54.765625,0)">
            <g transform="translate(55,0)">
               <rect width="113.4875" height="18" class="element-upper"/>
               <rect width="113.4875" height="18" y="18" class="element-lower"/>
               <text font-size="12" x="3.6" y="12" font-weight="bold">durchschnittsnote</text>
               <line x1="0" y1="18" x2="113.4875" y2="18"/>
               <text font-size="12" fill="grey" x="3.6" y="30">type</text>
               <line x1="31.753125" y1="18" x2="31.753125" y2="36"/>
               <text font-size="12" x="35.353125" y="30">xbd:Benotung</text>
               <g transform="translate(113.4875,0)"/>
            </g>
            <line x1="33"
                  y1="18"
                  x2="55"
                  y2="18"
                  class="type-structure-required"/>
            <text font-size="11" fill="black" x="53" y="16" text-anchor="end"/>
            <line x1="33"
                  y1="18"
                  x2="33"
                  y2="18"
                  class="type-structure-required"/>
            <g transform="translate(55,48)">
               <rect width="112.734375" height="18" class="element-upper"/>
               <rect width="112.734375" height="18" y="18" class="element-lower"/>
               <text font-size="12" x="3.6" y="12" font-weight="bold">gesamtpunktzahl</text>
               <line x1="0" y1="18" x2="112.734375" y2="18"/>
               <text font-size="12" fill="grey" x="3.6" y="30">type</text>
               <line x1="31.753125" y1="18" x2="31.753125" y2="36"/>
               <text font-size="12" x="35.353125" y="30">xbd:Benotung</text>
               <g transform="translate(112.734375,0)"/>
            </g>
            <line x1="33"
                  y1="66"
                  x2="55"
                  y2="66"
                  class="type-structure-optional"/>
            <text font-size="11" fill="black" x="53" y="64" text-anchor="end">0..1</text>
            <line x1="33"
                  y1="18"
                  x2="33"
                  y2="66"
                  class="type-structure-optional"/>
            <g transform="translate(55,96)">
               <rect width="119.55" height="18" class="element-upper"/>
               <rect width="119.55" height="18" y="18" class="element-lower"/>
               <text font-size="12" x="3.6" y="12" font-weight="bold">punktsummeBlockI</text>
               <line x1="0" y1="18" x2="119.55" y2="18"/>
               <text font-size="12" fill="grey" x="3.6" y="30">type</text>
               <line x1="31.753125" y1="18" x2="31.753125" y2="36"/>
               <text font-size="12" x="35.353125" y="30">xbd:Benotung</text>
               <g transform="translate(119.55,0)"/>
            </g>
            <line x1="33"
                  y1="114"
                  x2="55"
                  y2="114"
                  class="type-structure-optional"/>
            <text font-size="11"
                  fill="black"
                  x="53"
                  y="112"
                  text-anchor="end">0..1</text>
            <line x1="33"
                  y1="66"
                  x2="33"
                  y2="114"
                  class="type-structure-optional"/>
            <g transform="translate(55,144)">
               <rect width="122.55" height="18" class="element-upper"/>
               <rect width="122.55" height="18" y="18" class="element-lower"/>
               <text font-size="12" x="3.6" y="12" font-weight="bold">punktsummeBlockII</text>
               <line x1="0" y1="18" x2="122.55" y2="18"/>
               <text font-size="12" fill="grey" x="3.6" y="30">type</text>
               <line x1="31.753125" y1="18" x2="31.753125" y2="36"/>
               <text font-size="12" x="35.353125" y="30">xbd:Benotung</text>
               <g transform="translate(122.55,0)"/>
            </g>
            <line x1="33"
                  y1="162"
                  x2="55"
                  y2="162"
                  class="type-structure-optional"/>
            <text font-size="11"
                  fill="black"
                  x="53"
                  y="160"
                  text-anchor="end">0..1</text>
            <line x1="33"
                  y1="114"
                  x2="33"
                  y2="162"
                  class="type-structure-optional"/>
            <g transform="translate(55,192)">
               <rect width="146.671875" height="18" class="element-upper"/>
               <rect width="146.671875" height="18" y="18" class="element-lower"/>
               <text font-size="12" x="3.6" y="12" font-weight="bold">beschreibung</text>
               <line x1="0" y1="18" x2="146.671875" y2="18"/>
               <text font-size="12" fill="grey" x="3.6" y="30">type</text>
               <line x1="31.753125" y1="18" x2="31.753125" y2="36"/>
               <text font-size="12" x="35.353125" y="30">xbd:String.Localized</text>
               <g transform="translate(146.671875,0)"/>
            </g>
            <line x1="33"
                  y1="210"
                  x2="55"
                  y2="210"
                  class="type-structure-optional"/>
            <text font-size="11"
                  fill="black"
                  x="53"
                  y="208"
                  text-anchor="end">0..*</text>
            <line x1="33"
                  y1="162"
                  x2="33"
                  y2="210"
                  class="type-structure-optional"/>
            <circle cx="15"
                    cy="18"
                    r="10"
                    stroke="black"
                    fill="rgb(251, 251, 251)"/>
            <line x1="0"
                  y1="18"
                  x2="5"
                  y2="18"
                  class="type-structure-required"/>
            <line x1="25"
                  y1="18"
                  x2="33"
                  y2="18"
                  class="type-structure-required"/>
            <circle cx="10" cy="18" r="1.2" stroke="black" fill="black"/>
            <circle cx="15" cy="18" r="1.2" stroke="black" fill="black"/>
            <circle cx="20" cy="18" r="1.2" stroke="black" fill="black"/>
            <line x1="7" y1="18" x2="23" y2="18"/>
         </g>
      </g>
      <line x1="33"
            y1="786"
            x2="55"
            y2="786"
            class="type-structure-required"/>
      <text font-size="11"
            fill="black"
            x="53"
            y="784"
            text-anchor="end"/>
      <line x1="33"
            y1="690"
            x2="33"
            y2="786"
            class="type-structure-required"/>
      <g transform="translate(55,1008)">
         <rect width="98.175" height="18" class="element-upper"/>
         <rect width="98.175" height="18" y="18" class="element-lower"/>
         <text font-size="12" x="3.6" y="12" font-weight="bold">fremdsprachen</text>
         <line x1="0" y1="18" x2="98.175" y2="18"/>
         <text font-size="12" fill="grey" x="3.6" y="30">type</text>
         <line x1="31.753125" y1="18" x2="31.753125" y2="36"/>
         <g transform="translate(98.175,0)">
            <g transform="translate(55,0)">
               <rect width="140.03125" height="18" class="element-upper"/>
               <rect width="140.03125" height="18" y="18" class="element-lower"/>
               <text font-size="12" x="3.6" y="12" font-weight="bold">fremdsprache</text>
               <line x1="0" y1="18" x2="140.03125" y2="18"/>
               <text font-size="12" fill="grey" x="3.6" y="30">type</text>
               <line x1="31.753125" y1="18" x2="31.753125" y2="36"/>
               <text font-size="12" x="35.353125" y="30">xsc:Fremdsprache</text>
               <g transform="translate(140.03125,0)"/>
            </g>
            <line x1="33"
                  y1="18"
                  x2="55"
                  y2="18"
                  class="type-structure-optional"/>
            <text font-size="11" fill="black" x="53" y="16" text-anchor="end">0..*</text>
            <line x1="33"
                  y1="18"
                  x2="33"
                  y2="18"
                  class="type-structure-optional"/>
            <g transform="translate(55,48)">
               <rect width="252.03125" height="18" class="element-upper"/>
               <rect width="252.03125" height="18" y="18" class="element-lower"/>
               <text font-size="12" x="3.6" y="12" font-weight="bold">weitereSprachkenntnisse</text>
               <line x1="0" y1="18" x2="252.03125" y2="18"/>
               <text font-size="12" fill="grey" x="3.6" y="30">type</text>
               <line x1="31.753125" y1="18" x2="31.753125" y2="36"/>
               <text font-size="12" x="35.353125" y="30">xsc:Code.ArtWeitererSprachkenntnisse</text>
               <g transform="translate(252.03125,0)"/>
            </g>
            <line x1="33"
                  y1="66"
                  x2="55"
                  y2="66"
                  class="type-structure-optional"/>
            <text font-size="11" fill="black" x="53" y="64" text-anchor="end">0..*</text>
            <line x1="33"
                  y1="18"
                  x2="33"
                  y2="66"
                  class="type-structure-optional"/>
            <circle cx="15"
                    cy="18"
                    r="10"
                    stroke="black"
                    fill="rgb(251, 251, 251)"/>
            <line x1="0"
                  y1="18"
                  x2="5"
                  y2="18"
                  class="type-structure-optional"/>
            <line x1="25"
                  y1="18"
                  x2="33"
                  y2="18"
                  class="type-structure-optional"/>
            <circle cx="10" cy="18" r="1.2" stroke="black" fill="black"/>
            <circle cx="15" cy="18" r="1.2" stroke="black" fill="black"/>
            <circle cx="20" cy="18" r="1.2" stroke="black" fill="black"/>
            <line x1="7" y1="18" x2="23" y2="18"/>
         </g>
      </g>
      <line x1="33"
            y1="1026"
            x2="55"
            y2="1026"
            class="type-structure-required"/>
      <text font-size="11"
            fill="black"
            x="53"
            y="1024"
            text-anchor="end"/>
      <line x1="33"
            y1="786"
            x2="33"
            y2="1026"
            class="type-structure-required"/>
      <g transform="translate(55,1104)">
         <rect width="122.734375" height="18" class="element-upper"/>
         <rect width="122.734375" height="18" y="18" class="element-lower"/>
         <text font-size="12" x="3.6" y="12" font-weight="bold">bemerkung</text>
         <line x1="0" y1="18" x2="122.734375" y2="18"/>
         <text font-size="12" fill="grey" x="3.6" y="30">type</text>
         <line x1="31.753125" y1="18" x2="31.753125" y2="36"/>
         <text font-size="12" x="35.353125" y="30">xsc:Bemerkung</text>
         <g transform="translate(122.734375,0)"/>
      </g>
      <line x1="33"
            y1="1122"
            x2="55"
            y2="1122"
            class="type-structure-optional"/>
      <text font-size="11"
            fill="black"
            x="53"
            y="1120"
            text-anchor="end">0..*</text>
      <line x1="33"
            y1="1026"
            x2="33"
            y2="1122"
            class="type-structure-optional"/>
      <g transform="translate(55,1152)">
         <rect width="137.78125" height="18" class="element-upper"/>
         <rect width="137.78125" height="18" y="18" class="element-lower"/>
         <text font-size="12" x="3.6" y="12" font-weight="bold">ds:Signature (ref)</text>
         <line x1="0" y1="18" x2="137.78125" y2="18"/>
         <text font-size="12" fill="grey" x="3.6" y="30">type</text>
         <line x1="31.753125" y1="18" x2="31.753125" y2="36"/>
         <text font-size="12" x="35.353125" y="30">(see element def.)</text>
         <g transform="translate(137.78125,0)"/>
      </g>
      <line x1="33"
            y1="1170"
            x2="55"
            y2="1170"
            class="type-structure-optional"/>
      <text font-size="11"
            fill="black"
            x="53"
            y="1168"
            text-anchor="end">0..1</text>
      <line x1="33"
            y1="1122"
            x2="33"
            y2="1170"
            class="type-structure-optional"/>
      <circle cx="15"
              cy="18"
              r="10"
              stroke="black"
              fill="rgb(251, 251, 251)"/>
      <line x1="0"
            y1="18"
            x2="5"
            y2="18"
            class="type-structure-required"/>
      <line x1="25"
            y1="18"
            x2="33"
            y2="18"
            class="type-structure-required"/>
      <circle cx="10" cy="18" r="1.2" stroke="black" fill="black"/>
      <circle cx="15" cy="18" r="1.2" stroke="black" fill="black"/>
      <circle cx="20" cy="18" r="1.2" stroke="black" fill="black"/>
      <line x1="7" y1="18" x2="23" y2="18"/>
   </g>
</svg>
