<?xml version="1.0" encoding="UTF-8"?>
<svg xmlns="http://www.w3.org/2000/svg"
     width="685.2562499999999"
     height="538">
   <defs>
      <style type="text/css">
                        text {
                            font-family: 'Arial';
                            fill: black;
                        }
                        text.at {
                            font-family: 'Arial';
                            fill: rgb(242, 152, 0);
                        }
                        line {
                            stroke: black;
                        }
                        line.type-structure {
                            stroke: black;
                        }
                        line.type-structure-optional {
                            stroke: black;
                            stroke-dasharray: 4, 4;
                        }
                        rect.attribute-upper {
                            stroke: black;
                            fill: rgb(255, 239, 211);
                        }
                        rect.element-upper {
                            stroke: black;
                            fill: rgb(215, 227, 249);
                        }
                        rect.element-lower {
                            stroke: black;
                            fill: rgb(236, 242, 252);
                        }
                        a text {
                            fill: black;
                        } 
                    </style>
   </defs>
   <rect width="675.2562499999999"
         height="528"
         stroke-dasharray="3,3"
         rx="1"
         ry="1"
         style="stroke: grey;fill: white;"/>
   <text font-size="14" x="3.6" y="18" font-weight="bold">element schueler.schulbescheinigung.0004 (anonymous type)</text>
   <text font-size="12" x="3.6" y="34.8"> (extension of xbd:Dokument)</text>
   <g transform="translate(10,46)">
      <g transform="translate(55,0)">
         <rect width="109.015625" height="18" class="element-upper"/>
         <rect width="109.015625" height="18" y="18" class="element-lower"/>
         <text font-size="12" x="3.6" y="12" font-weight="bold">schueler</text>
         <line x1="0" y1="18" x2="109.015625" y2="18"/>
         <text font-size="12" fill="grey" x="3.6" y="30">type</text>
         <line x1="31.753125" y1="18" x2="31.753125" y2="36"/>
         <text font-size="12" x="35.353125" y="30">xsc:Schueler</text>
         <g transform="translate(109.015625,0)"/>
      </g>
      <line x1="33"
            y1="18"
            x2="55"
            y2="18"
            class="type-structure-required"/>
      <text font-size="11" fill="black" x="53" y="16" text-anchor="end"/>
      <line x1="33"
            y1="18"
            x2="33"
            y2="18"
            class="type-structure-required"/>
      <g transform="translate(55,48)">
         <rect width="83.034375" height="18" class="element-upper"/>
         <rect width="83.034375" height="18" y="18" class="element-lower"/>
         <text font-size="12" x="3.6" y="12" font-weight="bold">schulbesuch</text>
         <line x1="0" y1="18" x2="83.034375" y2="18"/>
         <text font-size="12" fill="grey" x="3.6" y="30">type</text>
         <line x1="31.753125" y1="18" x2="31.753125" y2="36"/>
         <g transform="translate(83.034375,0)">
            <g transform="translate(55,0)">
               <rect width="178.03125" height="18" class="element-upper"/>
               <rect width="178.03125" height="18" y="18" class="element-lower"/>
               <text font-size="12" x="3.6" y="12" font-weight="bold">jahrgangsstufe</text>
               <line x1="0" y1="18" x2="178.03125" y2="18"/>
               <text font-size="12" fill="grey" x="3.6" y="30">type</text>
               <line x1="31.753125" y1="18" x2="31.753125" y2="36"/>
               <text font-size="12" x="35.353125" y="30">xsc:Code.Jahrgangsstufe</text>
               <g transform="translate(178.03125,0)"/>
            </g>
            <line x1="33"
                  y1="18"
                  x2="55"
                  y2="18"
                  class="type-structure-optional"/>
            <text font-size="11" fill="black" x="53" y="16" text-anchor="end">0..1</text>
            <line x1="33"
                  y1="18"
                  x2="33"
                  y2="18"
                  class="type-structure-optional"/>
            <g transform="translate(55,48)">
               <rect width="63.346875000000004" height="18" class="element-upper"/>
               <rect width="63.346875000000004"
                     height="18"
                     y="18"
                     class="element-lower"/>
               <text font-size="12" x="3.6" y="12" font-weight="bold">schuljahr</text>
               <line x1="0" y1="18" x2="63.346875000000004" y2="18"/>
               <text font-size="12" fill="grey" x="3.6" y="30">type</text>
               <line x1="31.753125" y1="18" x2="31.753125" y2="36"/>
               <g transform="translate(63.346875000000004,0)">
                  <g transform="translate(55,0)">
                     <rect width="174.078125" height="18" class="element-upper"/>
                     <rect width="174.078125" height="18" y="18" class="element-lower"/>
                     <text font-size="12" x="3.6" y="12" font-weight="bold">beginn</text>
                     <line x1="0" y1="18" x2="174.078125" y2="18"/>
                     <text font-size="12" fill="grey" x="3.6" y="30">type</text>
                     <line x1="31.753125" y1="18" x2="31.753125" y2="36"/>
                     <text font-size="12" x="35.353125" y="30">xbd:TeilbekanntesDatum</text>
                     <g transform="translate(174.078125,0)"/>
                  </g>
                  <line x1="33"
                        y1="18"
                        x2="55"
                        y2="18"
                        class="type-structure-required"/>
                  <text font-size="11" fill="black" x="53" y="16" text-anchor="end"/>
                  <line x1="33"
                        y1="18"
                        x2="33"
                        y2="18"
                        class="type-structure-required"/>
                  <g transform="translate(55,48)">
                     <rect width="174.078125" height="18" class="element-upper"/>
                     <rect width="174.078125" height="18" y="18" class="element-lower"/>
                     <text font-size="12" x="3.6" y="12" font-weight="bold">ende</text>
                     <line x1="0" y1="18" x2="174.078125" y2="18"/>
                     <text font-size="12" fill="grey" x="3.6" y="30">type</text>
                     <line x1="31.753125" y1="18" x2="31.753125" y2="36"/>
                     <text font-size="12" x="35.353125" y="30">xbd:TeilbekanntesDatum</text>
                     <g transform="translate(174.078125,0)"/>
                  </g>
                  <line x1="33"
                        y1="66"
                        x2="55"
                        y2="66"
                        class="type-structure-required"/>
                  <text font-size="11" fill="black" x="53" y="64" text-anchor="end"/>
                  <line x1="33"
                        y1="18"
                        x2="33"
                        y2="66"
                        class="type-structure-required"/>
                  <circle cx="15"
                          cy="18"
                          r="10"
                          stroke="black"
                          fill="rgb(251, 251, 251)"/>
                  <line x1="0"
                        y1="18"
                        x2="5"
                        y2="18"
                        class="type-structure-required"/>
                  <line x1="25"
                        y1="18"
                        x2="33"
                        y2="18"
                        class="type-structure-required"/>
                  <circle cx="10" cy="18" r="1.2" stroke="black" fill="black"/>
                  <circle cx="15" cy="18" r="1.2" stroke="black" fill="black"/>
                  <circle cx="20" cy="18" r="1.2" stroke="black" fill="black"/>
                  <line x1="7" y1="18" x2="23" y2="18"/>
               </g>
            </g>
            <line x1="33"
                  y1="66"
                  x2="55"
                  y2="66"
                  class="type-structure-optional"/>
            <text font-size="11" fill="black" x="53" y="64" text-anchor="end">0..1</text>
            <line x1="33"
                  y1="18"
                  x2="33"
                  y2="66"
                  class="type-structure-optional"/>
            <g transform="translate(55,144)">
               <rect width="107.078125" height="18" class="element-upper"/>
               <rect width="107.078125" height="18" y="18" class="element-lower"/>
               <text font-size="12" x="3.6" y="12" font-weight="bold">zeitraum</text>
               <line x1="0" y1="18" x2="107.078125" y2="18"/>
               <text font-size="12" fill="grey" x="3.6" y="30">type</text>
               <line x1="31.753125" y1="18" x2="31.753125" y2="36"/>
               <text font-size="12" x="35.353125" y="30">xsc:Zeitraum</text>
               <g transform="translate(107.078125,0)"/>
            </g>
            <line x1="33"
                  y1="162"
                  x2="55"
                  y2="162"
                  class="type-structure-optional"/>
            <text font-size="11"
                  fill="black"
                  x="53"
                  y="160"
                  text-anchor="end">0..1</text>
            <line x1="33"
                  y1="66"
                  x2="33"
                  y2="162"
                  class="type-structure-optional"/>
            <g transform="translate(55,192)">
               <rect width="168.83124999999998" height="18" class="element-upper"/>
               <rect width="168.83124999999998"
                     height="18"
                     y="18"
                     class="element-lower"/>
               <text font-size="12" x="3.6" y="12" font-weight="bold">voraussichtlicherAbschluss</text>
               <line x1="0" y1="18" x2="168.83124999999998" y2="18"/>
               <text font-size="12" fill="grey" x="3.6" y="30">type</text>
               <line x1="31.753125" y1="18" x2="31.753125" y2="36"/>
               <g transform="translate(168.83124999999998,0)">
                  <g transform="translate(55,0)">
                     <rect width="232.390625" height="18" class="element-upper"/>
                     <rect width="232.390625" height="18" y="18" class="element-lower"/>
                     <text font-size="12" x="3.6" y="12" font-weight="bold">code</text>
                     <line x1="0" y1="18" x2="232.390625" y2="18"/>
                     <text font-size="12" fill="grey" x="3.6" y="30">type</text>
                     <line x1="31.753125" y1="18" x2="31.753125" y2="36"/>
                     <text font-size="12" x="35.353125" y="30">xbd:Code.ArtDesSchulabschlusses</text>
                     <g transform="translate(232.390625,0)"/>
                  </g>
                  <line x1="33"
                        y1="18"
                        x2="55"
                        y2="18"
                        class="type-structure-required"/>
                  <text font-size="11" fill="black" x="53" y="16" text-anchor="end"/>
                  <line x1="33"
                        y1="18"
                        x2="33"
                        y2="18"
                        class="type-structure-required"/>
                  <g transform="translate(55,48)">
                     <rect width="120.8" height="18" class="element-upper"/>
                     <rect width="120.8" height="18" y="18" class="element-lower"/>
                     <text font-size="12" x="3.6" y="12" font-weight="bold">nichtGelisteterWert</text>
                     <line x1="0" y1="18" x2="120.8" y2="18"/>
                     <text font-size="12" fill="grey" x="3.6" y="30">type</text>
                     <line x1="31.753125" y1="18" x2="31.753125" y2="36"/>
                     <text font-size="12" x="35.353125" y="30">xs:string</text>
                     <g transform="translate(120.8,0)"/>
                  </g>
                  <line x1="33"
                        y1="66"
                        x2="55"
                        y2="66"
                        class="type-structure-optional"/>
                  <text font-size="11" fill="black" x="53" y="64" text-anchor="end">0..1</text>
                  <line x1="33"
                        y1="18"
                        x2="33"
                        y2="66"
                        class="type-structure-optional"/>
                  <circle cx="15"
                          cy="18"
                          r="10"
                          stroke="black"
                          fill="rgb(251, 251, 251)"/>
                  <line x1="0"
                        y1="18"
                        x2="5"
                        y2="18"
                        class="type-structure-required"/>
                  <line x1="25"
                        y1="18"
                        x2="33"
                        y2="18"
                        class="type-structure-required"/>
                  <circle cx="10" cy="18" r="1.2" stroke="black" fill="black"/>
                  <circle cx="15" cy="18" r="1.2" stroke="black" fill="black"/>
                  <circle cx="20" cy="18" r="1.2" stroke="black" fill="black"/>
                  <line x1="7" y1="18" x2="23" y2="18"/>
               </g>
            </g>
            <line x1="33"
                  y1="210"
                  x2="55"
                  y2="210"
                  class="type-structure-optional"/>
            <text font-size="11"
                  fill="black"
                  x="53"
                  y="208"
                  text-anchor="end">0..1</text>
            <line x1="33"
                  y1="162"
                  x2="33"
                  y2="210"
                  class="type-structure-optional"/>
            <circle cx="15"
                    cy="18"
                    r="10"
                    stroke="black"
                    fill="rgb(251, 251, 251)"/>
            <line x1="0"
                  y1="18"
                  x2="5"
                  y2="18"
                  class="type-structure-optional"/>
            <line x1="25"
                  y1="18"
                  x2="33"
                  y2="18"
                  class="type-structure-optional"/>
            <circle cx="10" cy="18" r="1.2" stroke="black" fill="black"/>
            <circle cx="15" cy="18" r="1.2" stroke="black" fill="black"/>
            <circle cx="20" cy="18" r="1.2" stroke="black" fill="black"/>
            <line x1="7" y1="18" x2="23" y2="18"/>
         </g>
      </g>
      <line x1="33"
            y1="66"
            x2="55"
            y2="66"
            class="type-structure-required"/>
      <text font-size="11" fill="black" x="53" y="64" text-anchor="end"/>
      <line x1="33"
            y1="18"
            x2="33"
            y2="66"
            class="type-structure-required"/>
      <g transform="translate(55,336)">
         <rect width="97.03125" height="18" class="element-upper"/>
         <rect width="97.03125" height="18" y="18" class="element-lower"/>
         <text font-size="12" x="3.6" y="12" font-weight="bold">schule</text>
         <line x1="0" y1="18" x2="97.03125" y2="18"/>
         <text font-size="12" fill="grey" x="3.6" y="30">type</text>
         <line x1="31.753125" y1="18" x2="31.753125" y2="36"/>
         <text font-size="12" x="35.353125" y="30">xsc:Schule</text>
         <g transform="translate(97.03125,0)"/>
      </g>
      <line x1="33"
            y1="354"
            x2="55"
            y2="354"
            class="type-structure-required"/>
      <text font-size="11"
            fill="black"
            x="53"
            y="352"
            text-anchor="end"/>
      <line x1="33"
            y1="66"
            x2="33"
            y2="354"
            class="type-structure-required"/>
      <g transform="translate(55,384)">
         <rect width="124.734375" height="18" class="element-upper"/>
         <rect width="124.734375" height="18" y="18" class="element-lower"/>
         <text font-size="12" x="3.6" y="12" font-weight="bold">erweiterung</text>
         <line x1="0" y1="18" x2="124.734375" y2="18"/>
         <text font-size="12" fill="grey" x="3.6" y="30">type</text>
         <line x1="31.753125" y1="18" x2="31.753125" y2="36"/>
         <text font-size="12" x="35.353125" y="30">xsc:Erweiterung</text>
         <g transform="translate(124.734375,0)"/>
      </g>
      <line x1="33"
            y1="402"
            x2="55"
            y2="402"
            class="type-structure-optional"/>
      <text font-size="11"
            fill="black"
            x="53"
            y="400"
            text-anchor="end">0..1</text>
      <line x1="33"
            y1="354"
            x2="33"
            y2="402"
            class="type-structure-optional"/>
      <g transform="translate(55,432)">
         <rect width="137.78125" height="18" class="element-upper"/>
         <rect width="137.78125" height="18" y="18" class="element-lower"/>
         <text font-size="12" x="3.6" y="12" font-weight="bold">ds:Signature (ref)</text>
         <line x1="0" y1="18" x2="137.78125" y2="18"/>
         <text font-size="12" fill="grey" x="3.6" y="30">type</text>
         <line x1="31.753125" y1="18" x2="31.753125" y2="36"/>
         <text font-size="12" x="35.353125" y="30">(see element def.)</text>
         <g transform="translate(137.78125,0)"/>
      </g>
      <line x1="33"
            y1="450"
            x2="55"
            y2="450"
            class="type-structure-optional"/>
      <text font-size="11"
            fill="black"
            x="53"
            y="448"
            text-anchor="end">0..1</text>
      <line x1="33"
            y1="402"
            x2="33"
            y2="450"
            class="type-structure-optional"/>
      <circle cx="15"
              cy="18"
              r="10"
              stroke="black"
              fill="rgb(251, 251, 251)"/>
      <line x1="0"
            y1="18"
            x2="5"
            y2="18"
            class="type-structure-required"/>
      <line x1="25"
            y1="18"
            x2="33"
            y2="18"
            class="type-structure-required"/>
      <circle cx="10" cy="18" r="1.2" stroke="black" fill="black"/>
      <circle cx="15" cy="18" r="1.2" stroke="black" fill="black"/>
      <circle cx="20" cy="18" r="1.2" stroke="black" fill="black"/>
      <line x1="7" y1="18" x2="23" y2="18"/>
   </g>
</svg>
