<svg width="1280" height="720" xmlns="http://www.w3.org/2000/svg" xmlns:xlink="http://www.w3.org/1999/xlink" overflow="hidden"><defs><clipPath id="clip0"><rect x="0" y="0" width="1280" height="720"/></clipPath></defs><g clip-path="url(#clip0)"><rect x="0" y="0" width="1280" height="720" fill="#FFFFFF"/><text font-family="Calibri Light,Calibri Light_MSFontService,sans-serif" font-weight="300" font-size="59" transform="translate(11.6971 88)">Analoger (Grund-)Schulwechsel</text><rect x="12.5001" y="255.5" width="110" height="53" stroke="#000000" stroke-width="1.33333" stroke-linejoin="round" stroke-miterlimit="10" fill="#FFD966"/><text font-family="Calibri,Calibri_MSFontService,sans-serif" font-weight="400" font-size="11" transform="translate(16.7396 285)">Erziehungs<tspan font-size="11" x="47" y="0">-</tspan><tspan font-size="11" x="50.3333" y="0">berechtigte</tspan></text><rect x="218.5" y="255.5" width="110" height="53" stroke="#FFC000" stroke-width="1.33333" stroke-linejoin="round" stroke-miterlimit="10" fill="#FFD966"/><text font-family="Calibri,Calibri_MSFontService,sans-serif" font-weight="400" font-size="11" transform="translate(227.705 279)">Suche &amp; Information <tspan font-size="11" x="18.5867" y="13">neue Schule</tspan></text><rect x="352.5" y="255.5" width="110" height="53" stroke="#FFC000" stroke-width="1.33333" stroke-linejoin="round" stroke-miterlimit="10" fill="#FFD966"/><text font-family="Calibri,Calibri_MSFontService,sans-serif" font-weight="400" font-size="9" transform="translate(361.642 268)">Anmeldung neue Schule <tspan font-size="9" x="7.16666" y="11">(Schulsprengel) (ggf. </tspan><tspan font-size="9" x="-4.42001" y="22">Prüfung Verfügbarkeit von </tspan><tspan font-size="9" x="18.08" y="33">freien Plätzen)</tspan></text><path d="M0.000715788-0.166665 17.8527-0.0899948 17.8513 0.243335-0.000715788 0.166665ZM16.5359-3.92902 24.5186 0.105302 16.5015 4.07091Z" transform="matrix(1 0 0 -1 328.5 282.605)"/><rect x="621.5" y="255.5" width="110" height="53" stroke="#FFC000" stroke-width="1.33333" stroke-linejoin="round" stroke-miterlimit="10" fill="#FFD966"/><text font-family="Calibri,Calibri_MSFontService,sans-serif" font-weight="400" font-size="11" transform="translate(627.152 278)">Aufnahmegespräch an <tspan font-size="11" x="20.6667" y="13">neuer Schule</tspan></text><rect x="755.5" y="255.5" width="110" height="53" stroke="#FFC000" stroke-width="1.33333" stroke-linejoin="round" stroke-miterlimit="10" fill="#FFD966"/><text font-family="Calibri,Calibri_MSFontService,sans-serif" font-weight="400" font-size="9" transform="translate(779.328 263)">Zustimmung der <tspan font-size="9" x="-4.08661" y="11">Sorgeberechtigten </tspan><tspan font-size="9" x="1.91339" y="22">erforderlich für </tspan><tspan font-size="9" x="-1" y="33">Herausgabe aller </tspan><tspan font-size="9" x="3.58002" y="45">Informationen</tspan></text><rect x="755.5" y="342.5" width="110" height="53" stroke="#548235" stroke-width="1.33333" stroke-linejoin="round" stroke-miterlimit="10" fill="#A9D18E"/><text font-family="Calibri,Calibri_MSFontService,sans-serif" font-weight="400" font-size="11" transform="translate(775.655 353)">Herausgabe der <tspan font-size="11" x="2.33337" y="13">Schülerakte an </tspan><tspan font-size="11" x="-11.6666" y="26">aufnehmende Schule </tspan><tspan font-size="11" x="-1.66663" y="38">(Leistungsdaten)</tspan></text><path d="M0.166659-0.00162513 0.438241 27.8494 0.104924 27.8527-0.166659 0.00162513ZM4.25839 26.4788 0.336588 34.5174-3.74123 26.5568Z" transform="matrix(-1 0 0 1 810.837 308.5)"/><path d="M115.5 210C115.5 195.365 140.124 183.5 170.5 183.5 200.876 183.5 225.5 195.365 225.5 210 225.5 224.636 200.876 236.5 170.5 236.5 140.124 236.5 115.5 224.636 115.5 210Z" stroke="#FFC000" stroke-width="1.33333" stroke-miterlimit="8" fill="#FFD966" fill-rule="evenodd"/><text font-family="Calibri,Calibri_MSFontService,sans-serif" font-weight="400" font-size="9" transform="translate(154.639 193)">Planung <tspan font-size="9" x="-6.08667" y="9">Umzug von </tspan><tspan font-size="9" x="-10.6667" y="19">Bundesland A </tspan><tspan font-size="9" x="6.08" y="28">nach </tspan><tspan font-size="9" x="-10.5" y="37">Bundesland B</tspan></text><rect x="12.5001" y="342.5" width="110" height="53" stroke="#000000" stroke-width="1.33333" stroke-linejoin="round" stroke-miterlimit="10" fill="#A9D18E"/><text font-family="Calibri,Calibri_MSFontService,sans-serif" font-weight="400" font-size="11" transform="translate(27.16 372)">abgebende Schule</text><rect x="12.5001" y="430.5" width="110" height="52" stroke="#000000" stroke-width="1.33333" stroke-linejoin="round" stroke-miterlimit="10" fill="#05B202"/><text font-family="Calibri,Calibri_MSFontService,sans-serif" font-weight="400" font-size="11" transform="translate(20.7837 459)">aufnehmende Schule</text><rect x="424.5" y="183.5" width="110" height="53" stroke="#FFC000" stroke-width="1.33333" stroke-linejoin="round" stroke-miterlimit="10" fill="#FFD966"/><text font-family="Calibri,Calibri_MSFontService,sans-serif" font-weight="400" font-size="11" transform="translate(463.545 217)">Umzug</text><rect x="1024.5" y="182.5" width="110" height="53" stroke="#FFC000" stroke-width="1.33333" stroke-linejoin="round" stroke-miterlimit="10" fill="#FFD966"/><text font-family="Calibri,Calibri_MSFontService,sans-serif" font-weight="400" font-size="11" transform="translate(1044.53 200)">Innerhalb von 2 <tspan font-size="11" x="-13.42" y="13">Wochen nach Umzug: </tspan><tspan font-size="11" x="-14.7533" y="26">Anmeldung Meldeamt</tspan></text><path d="M0.000212484-0.166667 483.145 0.449297 483.144 0.78263-0.000212484 0.166667ZM481.815-3.38573 489.81 0.624462 481.805 4.61426Z" transform="matrix(1 0 0 -1 534.5 210.125)"/><path d="M1079.67 235.5 1079.67 423.601 1079.33 423.601 1079.33 235.5ZM1083.5 422.268 1079.5 430.268 1075.5 422.268Z"/><rect x="487.5" y="255.5" width="110" height="53" stroke="#FFC000" stroke-width="1.33333" stroke-linejoin="round" stroke-miterlimit="10" fill="#FFD966"/><text font-family="Calibri,Calibri_MSFontService,sans-serif" font-weight="400" font-size="11" transform="translate(503.729 266)">Vorankündigung/<tspan font-size="11" x="6.25333" y="13">Gespräch über </tspan><tspan font-size="11" x="2.25333" y="26">bevorstehenden </tspan><tspan font-size="11" x="8.83331" y="38">Schulwechsel</tspan></text><rect x="1158.5" y="342.5" width="110" height="53" stroke="#548235" stroke-width="1.33333" stroke-linejoin="round" stroke-miterlimit="10" fill="#A9D18E"/><text font-family="Calibri,Calibri_MSFontService,sans-serif" font-weight="400" font-size="11" transform="translate(1170.05 364)">Löschung der Daten <tspan font-size="11" x="-2.5" y="13">gemäß Löschkonzept</tspan></text><path d="M865.5 369.333 1151.82 369.333 1151.82 369.667 865.5 369.667ZM1150.48 365.5 1158.48 369.5 1150.48 373.5Z"/><text font-family="Calibri,Calibri_MSFontService,sans-serif" font-weight="400" font-size="9" transform="translate(1080.46 283)">Automatischer Abgleich mit Meldeamt <tspan font-size="9" x="0" y="11">alle 2 Wochen; </tspan><tspan font-size="9" x="0" y="22">auch im Sinne der Schulpflichtüberwachung</tspan></text><path d="M225.5 209.333 417.49 209.333 417.49 209.667 225.5 209.667ZM416.157 205.5 424.157 209.5 416.157 213.5Z"/><rect x="487.5" y="342.5" width="110" height="53" stroke="#548235" stroke-width="1.33333" stroke-linejoin="round" stroke-miterlimit="10" fill="#A9D18E"/><text font-family="Calibri,Calibri_MSFontService,sans-serif" font-weight="400" font-size="11" transform="translate(517.812 351)">Bei Bedarf: <tspan font-size="11" x="-3.08667" y="13">Vormerkung </tspan><tspan font-size="11" x="-23.3333" y="26">anstehender Wechsel </tspan><tspan font-size="11" x="-6.83334" y="38">in Schülerakte</tspan></text><path d="M542.667 308.5 542.667 336.286 542.333 336.286 542.333 308.5ZM546.5 334.952 542.5 342.952 538.5 334.952Z"/><rect x="352.5" y="430.5" width="110" height="52" stroke="#2B8A00" stroke-width="1.33333" stroke-linejoin="round" stroke-miterlimit="10" fill="#05B202"/><text font-family="Calibri,Calibri_MSFontService,sans-serif" font-weight="400" font-size="11" transform="translate(383.244 440)">Bei Bedarf: <tspan font-size="11" x="-11.3333" y="13">Unverbindliches </tspan><tspan font-size="11" x="-3.33331" y="26">Vorgespräch</tspan><tspan font-size="11" x="-3.58667" y="38">(freie Plätze)</tspan></text><rect x="621.5" y="430.5" width="110" height="52" stroke="#2B8A00" stroke-width="1.33333" stroke-linejoin="round" stroke-miterlimit="10" fill="#05B202"/><text font-family="Calibri,Calibri_MSFontService,sans-serif" font-weight="400" font-size="11" transform="translate(633.322 447)">Nach erfolgreichem <tspan font-size="11" x="1.16669" y="13">Gespräch: offizielle </tspan><tspan font-size="11" x="-8.08667" y="26">Aufnahme des Schülers</tspan></text><path d="M0.166667-1.44022e-07 0.166766 114.828-0.166567 114.828-0.166667 1.44022e-07ZM4.0001 113.494 0.000104987 121.494-3.9999 113.494Z" transform="matrix(-1 0 0 1 676.5 308.5)"/><rect x="755.5" y="430.5" width="110" height="52" stroke="#2B8A00" stroke-width="1.33333" stroke-linejoin="round" stroke-miterlimit="10" fill="#05B202"/><text font-family="Calibri,Calibri_MSFontService,sans-serif" font-weight="400" font-size="11" transform="translate(780.655 447)">Aufforderung <tspan font-size="11" x="-21.6666" y="13">Schülerakte abgebende </tspan><tspan font-size="11" x="-17" y="26">Schule/Schulbehörde</tspan></text><path d="M731.5 456.333 748.671 456.333 748.671 456.667 731.5 456.667ZM747.337 452.5 755.337 456.5 747.337 460.5Z"/><rect x="1024.5" y="430.5" width="110" height="53" stroke="#2B8A00" stroke-width="1.33333" stroke-linejoin="round" stroke-miterlimit="10" fill="#05B202"/><text font-family="Calibri,Calibri_MSFontService,sans-serif" font-weight="400" font-size="11" transform="translate(1055.77 454)">Ggf. Erhalt <tspan font-size="11" x="-15.2467" y="13">von </tspan><tspan font-size="11" x="3.2533" y="13">XMeld</tspan><tspan font-size="11" x="31.4199" y="13">-</tspan><tspan font-size="11" x="34.7533" y="13">Daten</tspan></text><path d="M865.5 456.333 882.671 456.333 882.671 456.667 865.5 456.667ZM881.337 452.5 889.337 456.5 881.337 460.5Z"/><rect x="1158.5" y="430.5" width="110" height="52" stroke="#2B8A00" stroke-width="1.33333" stroke-linejoin="round" stroke-miterlimit="10" fill="#05B202"/><text font-family="Calibri,Calibri_MSFontService,sans-serif" font-weight="400" font-size="11" transform="translate(1189.3 447)">Bei Bedarf: <tspan font-size="11" x="-15.3334" y="13">Vervollständigung </tspan><tspan font-size="11" x="-4.83337" y="26">Schülerdaten</tspan></text><path d="M0.00290169-0.166641 17.7861 0.143013 17.7803 0.476296-0.00290169 0.166641ZM16.5197-3.71295 24.4488 0.425722 16.3804 4.28583Z" transform="matrix(1 0 0 -1 1134.5 456.926)"/><path d="M0.333354 6.66667 0.333418 27.6803-0.333249 27.6803-0.333313 6.66667ZM-3.99998 8.00001 0 0 4.00002 7.99999ZM4.00008 26.347 0.000104987 34.347-3.99992 26.347Z" transform="matrix(1 0 0 -1 810.5 429.847)"/><rect x="12.5001" y="517.5" width="110" height="52" stroke="#000000" stroke-width="1.33333" stroke-linejoin="round" stroke-miterlimit="10" fill="#9DC3E6"/><text font-family="Calibri,Calibri_MSFontService,sans-serif" font-weight="400" font-size="11" transform="translate(36.7837 546)">Schulbehörde</text><rect x="889.5" y="430.5" width="110" height="52" stroke="#2B8A00" stroke-width="1.33333" stroke-linejoin="round" stroke-miterlimit="10" fill="#05B202"/><text font-family="Calibri,Calibri_MSFontService,sans-serif" font-weight="400" font-size="9" transform="translate(910.995 443)">Den Übertritt der <tspan font-size="9" x="-3.91998" y="11">abgebenden Schule </tspan><tspan font-size="9" x="-13.2533" y="22">bestätigen (im Sinne der </tspan><tspan font-size="9" x="-16.2533" y="33">Schulpflichtüberwachung)</tspan></text><rect x="217.5" y="517.5" width="111" height="52" stroke="#2E75B6" stroke-width="1.33333" stroke-linejoin="round" stroke-miterlimit="10" fill="#9DC3E6"/><text font-family="Calibri,Calibri_MSFontService,sans-serif" font-weight="400" font-size="9" transform="translate(226.249 524)">Antrag auf Schulwechsel <tspan font-size="9" x="13.42" y="11">bei Wechsel über </tspan><tspan font-size="9" x="6.58667" y="22">Schulsprengel hinaus </tspan><tspan font-size="9" x="26.42" y="32">bestätigen </tspan><tspan font-size="9" x="11.0867" y="43">(Gastschul</tspan>-<tspan font-size="9" x="53.42" y="43">Antrag)</tspan></text><rect x="487.5" y="520.5" width="110" height="52" stroke="#2E75B6" stroke-width="1.33333" stroke-linejoin="round" stroke-miterlimit="10" fill="#9DC3E6"/><text font-family="Calibri,Calibri_MSFontService,sans-serif" font-weight="400" font-size="9" transform="translate(490.899 533)">Ggf. erfordert Schulbesuch <tspan font-size="9" x="1.5" y="11">eines Kindes aus anderem </tspan><tspan font-size="9" x="11.2533" y="22">BL Genehmigung des </tspan><tspan font-size="9" x="29.0867" y="33">Schulamtes </tspan><tspan font-size="16" x="511.475" y="76">Ist</tspan><tspan font-size="16" x="527.142" y="76">-</tspan><tspan font-size="16" x="531.975" y="76">Stand analoger (Grund</tspan><tspan font-size="16" x="678.642" y="76">-</tspan><tspan font-size="16" x="683.475" y="76">)Schulwechsel. </tspan><tspan font-size="16" x="665.475" y="95">Stand 12.10.2021</tspan></text><path d="M462.5 282.333 480.007 282.333 480.007 282.667 462.5 282.667ZM478.674 278.5 486.674 282.5 478.674 286.5Z"/><path d="M273.833 209.5 273.833 249.439 273.167 249.439 273.167 209.5ZM277.5 248.105 273.5 256.105 269.5 248.105Z"/><path d="M597.5 282.333 615.007 282.333 615.007 282.667 597.5 282.667ZM613.674 278.5 621.674 282.5 613.674 286.5Z"/><path d="M0.0004495-0.166666 17.5076-0.119449 17.5067 0.213883-0.0004495 0.166666ZM16.1846-3.95636 24.1738 0.0651968 16.163 4.04361Z" transform="matrix(1 0 0 -1 731.5 282.565)"/><path d="M999.503 456.333 1017.2 456.643 1017.2 456.976 999.497 456.667ZM1015.94 452.787 1023.86 456.926 1015.8 460.785Z"/></g></svg>